<?xml version="1.0" encoding="UTF-8" standalone="no"?>
<svg
   xmlns:ns4="http://www.iki.fi/pav/software/textext/"
   xmlns:dc="http://purl.org/dc/elements/1.1/"
   xmlns:cc="http://creativecommons.org/ns#"
   xmlns:rdf="http://www.w3.org/1999/02/22-rdf-syntax-ns#"
   xmlns:svg="http://www.w3.org/2000/svg"
   xmlns="http://www.w3.org/2000/svg"
   xmlns:xlink="http://www.w3.org/1999/xlink"
   xmlns:sodipodi="http://sodipodi.sourceforge.net/DTD/sodipodi-0.dtd"
   xmlns:inkscape="http://www.inkscape.org/namespaces/inkscape"
   width="297mm"
   height="210mm"
   viewBox="0 0 297 210"
   version="1.1"
   id="svg8"
   inkscape:version="1.0.2 (e86c870879, 2021-01-15)"
   sodipodi:docname="bubbles.svg"
   inkscape:export-filename="/home/macbuse/ALG_TOP/bubbles.png"
   inkscape:export-xdpi="66.720177"
   inkscape:export-ydpi="66.720177">
  <defs
     id="defs2">
    <linearGradient
       inkscape:collect="always"
       id="linearGradient3675">
      <stop
         style="stop-color:#ffd5d5;stop-opacity:1"
         offset="0"
         id="stop3671" />
      <stop
         style="stop-color:#00c0ff;stop-opacity:1"
         offset="1"
         id="stop3673" />
    </linearGradient>
    <marker
       style="overflow:visible;"
       id="marker1338"
       refX="0.0"
       refY="0.0"
       orient="auto"
       inkscape:stockid="Arrow2Mend"
       inkscape:isstock="true">
      <path
         transform="scale(0.6) rotate(180) translate(0,0)"
         d="M 8.7185878,4.0337352 L -2.2072895,0.016013256 L 8.7185884,-4.0017078 C 6.9730900,-1.6296469 6.9831476,1.6157441 8.7185878,4.0337352 z "
         style="fill-rule:evenodd;stroke-width:0.625;stroke-linejoin:round;stroke:#000000;stroke-opacity:1;fill:#000000;fill-opacity:1"
         id="path1336" />
    </marker>
    <marker
       style="overflow:visible;"
       id="Arrow2Mend"
       refX="0.0"
       refY="0.0"
       orient="auto"
       inkscape:stockid="Arrow2Mend"
       inkscape:isstock="true"
       inkscape:collect="always">
      <path
         transform="scale(0.6) rotate(180) translate(0,0)"
         d="M 8.7185878,4.0337352 L -2.2072895,0.016013256 L 8.7185884,-4.0017078 C 6.9730900,-1.6296469 6.9831476,1.6157441 8.7185878,4.0337352 z "
         style="fill-rule:evenodd;stroke-width:0.625;stroke-linejoin:round;stroke:#000000;stroke-opacity:1;fill:#000000;fill-opacity:1"
         id="path985" />
    </marker>
    <marker
       style="overflow:visible;"
       id="Arrow1Mend"
       refX="0.0"
       refY="0.0"
       orient="auto"
       inkscape:stockid="Arrow1Mend"
       inkscape:isstock="true">
      <path
         transform="scale(0.4) rotate(180) translate(10,0)"
         style="fill-rule:evenodd;stroke:#000000;stroke-width:1pt;stroke-opacity:1;fill:#000000;fill-opacity:1"
         d="M 0.0,0.0 L 5.0,-5.0 L -12.5,0.0 L 5.0,5.0 L 0.0,0.0 z "
         id="path967" />
    </marker>
    <marker
       style="overflow:visible;"
       id="Arrow1Lend"
       refX="0.0"
       refY="0.0"
       orient="auto"
       inkscape:stockid="Arrow1Lend"
       inkscape:isstock="true">
      <path
         transform="scale(0.8) rotate(180) translate(12.5,0)"
         style="fill-rule:evenodd;stroke:#000000;stroke-width:1pt;stroke-opacity:1;fill:#000000;fill-opacity:1"
         d="M 0.0,0.0 L 5.0,-5.0 L -12.5,0.0 L 5.0,5.0 L 0.0,0.0 z "
         id="path961" />
    </marker>
    <radialGradient
       inkscape:collect="always"
       xlink:href="#linearGradient3675"
       id="radialGradient3212"
       gradientUnits="userSpaceOnUse"
       gradientTransform="matrix(0.99387643,0,0,0.9938764,-23.501469,23.047145)"
       cx="86.323265"
       cy="116.77386"
       fx="86.323265"
       fy="116.77386"
       r="28.172516" />
    <radialGradient
       inkscape:collect="always"
       xlink:href="#linearGradient3675"
       id="radialGradient3212-3"
       gradientUnits="userSpaceOnUse"
       gradientTransform="matrix(0.99387643,0,0,0.9938764,-23.501469,23.047145)"
       cx="86.323265"
       cy="116.77386"
       fx="86.323265"
       fy="116.77386"
       r="28.172516" />
    <radialGradient
       inkscape:collect="always"
       xlink:href="#linearGradient3675"
       id="radialGradient3212-35"
       gradientUnits="userSpaceOnUse"
       gradientTransform="matrix(0.99387643,0,0,0.9938764,-23.501469,23.047145)"
       cx="86.323265"
       cy="116.77386"
       fx="86.323265"
       fy="116.77386"
       r="28.172516" />
    <radialGradient
       inkscape:collect="always"
       xlink:href="#linearGradient3675"
       id="radialGradient3715"
       gradientUnits="userSpaceOnUse"
       gradientTransform="matrix(0.99387643,0,0,0.9938764,-23.501469,23.047145)"
       cx="85.573242"
       cy="56.780319"
       fx="85.573242"
       fy="56.780319"
       r="28.172516" />
  </defs>
  <sodipodi:namedview
     id="base"
     pagecolor="#ffffff"
     bordercolor="#666666"
     borderopacity="1.0"
     inkscape:pageopacity="0.0"
     inkscape:pageshadow="2"
     inkscape:zoom="0.98994949"
     inkscape:cx="373.41473"
     inkscape:cy="463.63956"
     inkscape:document-units="mm"
     inkscape:current-layer="layer1"
     inkscape:document-rotation="0"
     showgrid="false"
     inkscape:window-width="1181"
     inkscape:window-height="627"
     inkscape:window-x="0"
     inkscape:window-y="0"
     inkscape:window-maximized="1" />
  <metadata
     id="metadata5">
    <rdf:RDF>
      <cc:Work
         rdf:about="">
        <dc:format>image/svg+xml</dc:format>
        <dc:type
           rdf:resource="http://purl.org/dc/dcmitype/StillImage" />
        <dc:title />
      </cc:Work>
    </rdf:RDF>
  </metadata>
  <g
     inkscape:label="Layer 1"
     inkscape:groupmode="layer"
     id="layer1">
    <circle
       style="fill:url(#radialGradient3715);fill-opacity:1;stroke:#0000ff;stroke-width:0;stop-color:#000000;font-variation-settings:normal;opacity:1;vector-effect:none;stroke-linecap:butt;stroke-linejoin:miter;stroke-miterlimit:4;stroke-dasharray:none;stroke-dashoffset:0;stroke-opacity:1;stop-opacity:1"
       id="path851"
       cx="51.939018"
       cy="90.138092"
       r="28"
       inkscape:export-filename="/home/macbuse/sphere.png"
       inkscape:export-xdpi="84.193672"
       inkscape:export-ydpi="84.193672" />
    <path
       style="fill:#2b0000;fill-opacity:0.42;stroke:none;stroke-width:0.264583px;stroke-linecap:butt;stroke-linejoin:miter;stroke-opacity:1"
       d="m 24.423813,90.471905 c 0.09284,11.051165 9.705963,27.360855 27.249769,27.195245 25.36467,-0.23944 27.886778,-26.199875 27.886778,-26.199875 0,0 -38.688431,15.070215 -55.136547,-0.99537 z"
       id="path941"
       sodipodi:nodetypes="cscc"
       inkscape:export-filename="/home/macbuse/sphere.png"
       inkscape:export-xdpi="84.193672"
       inkscape:export-ydpi="84.193672" />
    <path
       id="circle3210"
       style="fill:url(#radialGradient3212);fill-opacity:1;stroke:#0000ff;stroke-width:0;stop-color:#000000"
       d="m 79.939018,148.34642 a 28,28 0 0 1 -28,28 28,28 0 0 1 -28,-28 28,28 0 0 1 28,-28 28,28 0 0 1 28,28 z" />
    <path
       style="fill:#2b0000;fill-opacity:0.42;stroke:none;stroke-width:0.264583px;stroke-linecap:butt;stroke-linejoin:miter;stroke-opacity:1"
       d="m 24.471838,146.53876 c 0.09284,-11.05117 9.856069,-26.28737 27.393844,-25.7985 22.446262,0.62568 27.940964,18.62273 27.749859,29.6684 0,0 -37.201592,10.28893 -55.143703,-3.8699 z"
       id="path3214"
       sodipodi:nodetypes="cscc"
       inkscape:export-filename="/home/macbuse/sphere.png"
       inkscape:export-xdpi="84.193672"
       inkscape:export-ydpi="84.193672" />
  </g>
  <g
     inkscape:groupmode="layer"
     id="layer2"
     inkscape:label="text">
    <path
       style="fill:none;stroke:#000000;stroke-width:2;stroke-linecap:butt;stroke-linejoin:miter;stroke-miterlimit:4;stroke-dasharray:none;stroke-opacity:1;marker-end:url(#Arrow2Mend)"
       d="m 70.304315,104.88629 c 13.11674,9.91646 10.891414,18.33757 -1.450145,32.15168"
       id="path956"
       sodipodi:nodetypes="cc"
       inkscape:export-filename="/home/macbuse/sphere.png"
       inkscape:export-xdpi="84.193672"
       inkscape:export-ydpi="84.193672" />
    <text
       xml:space="preserve"
       style="font-style:normal;font-weight:normal;font-size:10.5833px;line-height:1.25;font-family:sans-serif;fill:#000000;fill-opacity:1;stroke:none;stroke-width:0.264583"
       x="46.421375"
       y="81.460831"
       id="text1398"
       inkscape:export-filename="/home/macbuse/sphere.png"
       inkscape:export-xdpi="84.193672"
       inkscape:export-ydpi="84.193672"><tspan
         sodipodi:role="line"
         id="tspan1396"
         x="46.421375"
         y="81.460831"
         style="stroke-width:0.264583" /></text>
    <g
       transform="matrix(1.05833,0,0,1.05833,31.171398,99.667363)"
       ns4:version="1.3.0"
       ns4:texconverter="pdflatex"
       ns4:pdfconverter="inkscape"
       ns4:text="$H^- \\subset \\mathbb{S}^2$"
       ns4:preamble="/usr/share/inkscape/extensions/textext/default_packages.tex"
       ns4:scale="3.0"
       ns4:alignment="middle center"
       ns4:inkscapeversion="1.0.2"
       ns4:jacobian_sqrt="1.05833"
       id="g1466"
       inkscape:export-filename="/home/macbuse/sphere.png"
       inkscape:export-xdpi="84.193672"
       inkscape:export-ydpi="84.193672"
       style="fill:#ffffff">
      <defs
         id="id-d7640d59-366d-4388-a2fd-f33c26d3e509">
        <g
           id="id-90bebf95-6b3e-4754-81af-4d74788267f5">
          <symbol
             overflow="visible"
             id="id-bf21a18b-6323-49a7-a21b-7e357d802718">
            <path
               style="stroke:none"
               d=""
               id="id-158e9b01-862a-4252-99a0-28e5a8c64b6e" />
          </symbol>
          <symbol
             overflow="visible"
             id="id-48187e8b-40c4-4488-878b-92865fbbc825">
            <path
               style="stroke:none"
               d="M 7.609375,-6.046875 C 7.703125,-6.40625 7.71875,-6.5 8.4375,-6.5 c 0.265625,0 0.34375,0 0.34375,-0.203125 0,-0.109375 -0.109375,-0.109375 -0.140625,-0.109375 -0.28125,0 -1,0.03125 -1.28125,0.03125 -0.28125,0 -0.984375,-0.03125 -1.28125,-0.03125 -0.078125,0 -0.1875,0 -0.1875,0.203125 0,0.109375 0.09375,0.109375 0.28125,0.109375 0.015625,0 0.203125,0 0.375,0.015625 0.1875,0.03125 0.265625,0.03125 0.265625,0.171875 0,0.03125 0,0.046875 -0.03125,0.1875 L 6.1875,-3.703125 H 3.140625 l 0.59375,-2.34375 C 3.8125,-6.40625 3.84375,-6.5 4.5625,-6.5 c 0.265625,0 0.34375,0 0.34375,-0.203125 0,-0.109375 -0.109375,-0.109375 -0.140625,-0.109375 -0.28125,0 -1,0.03125 -1.28125,0.03125 -0.28125,0 -0.984375,-0.03125 -1.28125,-0.03125 -0.078125,0 -0.1875,0 -0.1875,0.203125 0,0.109375 0.09375,0.109375 0.28125,0.109375 0.015625,0 0.203125,0 0.375,0.015625 0.171875,0.03125 0.265625,0.03125 0.265625,0.171875 0,0.03125 0,0.0625 -0.03125,0.1875 L 1.5625,-0.78125 c -0.09375,0.390625 -0.109375,0.46875 -0.90625,0.46875 -0.171875,0 -0.265625,0 -0.265625,0.203125 C 0.390625,0 0.515625,0 0.53125,0 0.8125,0 1.515625,-0.03125 1.796875,-0.03125 2,-0.03125 2.21875,-0.015625 2.4375,-0.015625 2.65625,-0.015625 2.875,0 3.078125,0 3.15625,0 3.28125,0 3.28125,-0.203125 3.28125,-0.3125 3.1875,-0.3125 3,-0.3125 c -0.375,0 -0.640625,0 -0.640625,-0.171875 0,-0.0625 0.015625,-0.109375 0.015625,-0.171875 l 0.6875,-2.734375 h 3.03125 c -0.40625,1.65625 -0.640625,2.609375 -0.6875,2.75 C 5.3125,-0.3125 5.125,-0.3125 4.5,-0.3125 c -0.140625,0 -0.234375,0 -0.234375,0.203125 C 4.265625,0 4.390625,0 4.40625,0 4.6875,0 5.390625,-0.03125 5.671875,-0.03125 5.875,-0.03125 6.09375,-0.015625 6.3125,-0.015625 6.53125,-0.015625 6.75,0 6.953125,0 7.03125,0 7.15625,0 7.15625,-0.203125 7.15625,-0.3125 7.0625,-0.3125 6.875,-0.3125 c -0.359375,0 -0.640625,0 -0.640625,-0.171875 0,-0.0625 0.015625,-0.109375 0.03125,-0.171875 z m 0,0"
               id="id-84f2d999-5281-454e-b563-ce0be81996fe" />
          </symbol>
          <symbol
             overflow="visible"
             id="id-313c4f32-ff8c-49c7-a68e-108be807687d">
            <path
               style="stroke:none"
               d=""
               id="id-2a684ab0-921a-4cb6-b92a-670bae6ea0df" />
          </symbol>
          <symbol
             overflow="visible"
             id="id-bc3ae63f-b7fd-4e48-9014-dcdf23fb5e3c">
            <path
               style="stroke:none"
               d="m 5.1875,-1.578125 c 0.109375,0 0.28125,0 0.28125,-0.15625 0,-0.1875 -0.171875,-0.1875 -0.28125,-0.1875 H 1.03125 c -0.109375,0 -0.28125,0 -0.28125,0.171875 0,0.171875 0.15625,0.171875 0.28125,0.171875 z m 0,0"
               id="id-46bf7372-3ba7-405a-b6bd-65cbfd16b688" />
          </symbol>
          <symbol
             overflow="visible"
             id="id-9748abb5-2fbd-4640-9429-454ce3c9077c">
            <path
               style="stroke:none"
               d=""
               id="id-c67dfd4c-7d13-4802-bdaf-4c8267c20243" />
          </symbol>
          <symbol
             overflow="visible"
             id="id-d660308c-1695-448c-8602-b18b6be0b43e">
            <path
               style="stroke:none"
               d="m 6.5625,-4.984375 c 0.171875,0 0.359375,0 0.359375,-0.203125 0,-0.203125 -0.1875,-0.203125 -0.359375,-0.203125 H 3.890625 c -1.703125,0 -3.0625,1.296875 -3.0625,2.890625 0,1.609375 1.359375,2.90625 3.0625,2.90625 H 6.5625 c 0.171875,0 0.359375,0 0.359375,-0.203125 C 6.921875,0 6.734375,0 6.5625,0 H 3.90625 c -1.546875,0 -2.6875,-1.15625 -2.6875,-2.5 0,-1.328125 1.140625,-2.484375 2.6875,-2.484375 z m 0,0"
               id="id-6a349a1b-a0f0-4e06-b906-1b8ebf7aa10f" />
          </symbol>
          <symbol
             overflow="visible"
             id="id-113a309f-1d12-4274-994e-5c5d1ccac640">
            <path
               style="stroke:none"
               d=""
               id="id-7b90384b-3088-4623-a4a3-99745c04b887" />
          </symbol>
          <symbol
             overflow="visible"
             id="id-a45a206b-bf5b-4997-936c-0f672e971277">
            <path
               style="stroke:none"
               d="m 0.71875,-1.046875 h 0.015625 c 0,0 0.140625,0.234375 0.453125,0.53125 -0.15625,0 -0.3125,0.03125 -0.46875,0.109375 z m 1.375,-2 c 0.78125,0.328125 1.828125,0.78125 1.828125,1.703125 0,0.703125 -0.296875,1.109375 -1.296875,1.109375 -0.515625,0 -0.953125,-0.28125 -1.296875,-0.640625 C 0.734375,-1.46875 0.71875,-2 0.71875,-2.21875 0.71875,-2.3125 0.640625,-2.390625 0.546875,-2.390625 0.375,-2.390625 0.375,-2.234375 0.375,-2.0625 v 1.859375 c 0,0.15625 0,0.328125 0.171875,0.328125 0.078125,0 0.09375,-0.03125 0.15625,-0.09375 0.171875,-0.15625 0.34375,-0.1875 0.46875,-0.1875 0.265625,0 0.5,0.09375 0.59375,0.125 C 2.171875,0.125 2.46875,0.125 2.625,0.125 c 1.4375,0 2.65625,-0.734375 2.65625,-2.03125 0,-0.84375 -0.5,-1.75 -1.9375,-2.296875 -0.875,-0.359375 -1.875,-0.75 -1.875,-1.453125 0,-0.546875 0.390625,-1.015625 1.109375,-1.015625 0.71875,0 1.671875,0.75 1.875,1.59375 C 4.46875,-4.9375 4.5,-4.84375 4.640625,-4.84375 4.8125,-4.84375 4.8125,-5 4.8125,-5.171875 V -6.6875 c 0,-0.171875 0,-0.328125 -0.171875,-0.328125 -0.078125,0 -0.125,0.046875 -0.171875,0.078125 C 4.390625,-6.84375 4.25,-6.734375 4,-6.734375 c -0.25,0 -0.484375,-0.078125 -0.59375,-0.125 -0.328125,-0.125 -0.5625,-0.15625 -0.859375,-0.15625 -1.34375,0 -2.25,0.671875 -2.25,1.984375 0,0.65625 0.265625,1.328125 1.796875,1.984375 z m 2.359375,-2.84375 c -0.0625,-0.109375 -0.15625,-0.203125 -0.4375,-0.5 0.265625,-0.015625 0.4375,-0.09375 0.4375,-0.09375 z M 4.125,-0.59375 c 0.140625,-0.28125 0.15625,-0.6875 0.15625,-0.75 0,-1.046875 -1.046875,-1.59375 -1.8125,-1.921875 -0.9375,-0.40625 -1.828125,-0.828125 -1.828125,-1.765625 0,-0.46875 0.125,-1.03125 0.671875,-1.34375 v 0.015625 c -0.171875,0.28125 -0.1875,0.625 -0.1875,0.703125 0,0.90625 1.09375,1.375 2,1.734375 0.359375,0.140625 0.875,0.34375 1.265625,0.734375 0.3125,0.359375 0.546875,0.734375 0.546875,1.28125 0,0.765625 -0.515625,1.15625 -0.8125,1.3125 z m 0,0"
               id="id-3edfea84-41a7-4aa2-bdda-629e7ef4dd1c" />
          </symbol>
          <symbol
             overflow="visible"
             id="id-7b64e240-c63b-4d2e-b93f-c25dd0a0a408">
            <path
               style="stroke:none"
               d=""
               id="id-caac651e-60a3-427b-b07b-d98cd102c081" />
          </symbol>
          <symbol
             overflow="visible"
             id="id-de3f543a-ad85-4e23-8213-8293512dda01">
            <path
               style="stroke:none"
               d="M 3.515625,-1.265625 H 3.28125 c -0.015625,0.15625 -0.09375,0.5625 -0.1875,0.625 C 3.046875,-0.59375 2.515625,-0.59375 2.40625,-0.59375 H 1.125 c 0.734375,-0.640625 0.984375,-0.84375 1.390625,-1.171875 0.515625,-0.40625 1,-0.84375 1,-1.5 0,-0.84375 -0.734375,-1.359375 -1.625,-1.359375 -0.859375,0 -1.453125,0.609375 -1.453125,1.25 0,0.34375 0.296875,0.390625 0.375,0.390625 0.15625,0 0.359375,-0.125 0.359375,-0.375 0,-0.125 -0.046875,-0.375 -0.40625,-0.375 C 0.984375,-4.21875 1.453125,-4.375 1.78125,-4.375 c 0.703125,0 1.0625,0.546875 1.0625,1.109375 0,0.609375 -0.4375,1.078125 -0.65625,1.328125 L 0.515625,-0.265625 C 0.4375,-0.203125 0.4375,-0.1875 0.4375,0 h 2.875 z m 0,0"
               id="id-9f45ad70-b116-481b-95cf-1c694cd7679f" />
          </symbol>
        </g>
      </defs>
      <g
         id="id-8d2eb80a-9b03-41d5-9c27-191e6e99dc71"
         transform="translate(-149.103,-126.524)"
         style="fill:#ffffff">
        <g
           style="fill:#ffffff;fill-opacity:1"
           id="id-713f66bd-42b8-4e32-baa3-728f1ae62346">
          <g
             transform="translate(148.712,134.765)"
             id="g3148"
             style="fill:#ffffff">
            <path
               style="stroke:none;fill:#ffffff"
               d="M 7.609375,-6.046875 C 7.703125,-6.40625 7.71875,-6.5 8.4375,-6.5 c 0.265625,0 0.34375,0 0.34375,-0.203125 0,-0.109375 -0.109375,-0.109375 -0.140625,-0.109375 -0.28125,0 -1,0.03125 -1.28125,0.03125 -0.28125,0 -0.984375,-0.03125 -1.28125,-0.03125 -0.078125,0 -0.1875,0 -0.1875,0.203125 0,0.109375 0.09375,0.109375 0.28125,0.109375 0.015625,0 0.203125,0 0.375,0.015625 0.1875,0.03125 0.265625,0.03125 0.265625,0.171875 0,0.03125 0,0.046875 -0.03125,0.1875 L 6.1875,-3.703125 H 3.140625 l 0.59375,-2.34375 C 3.8125,-6.40625 3.84375,-6.5 4.5625,-6.5 c 0.265625,0 0.34375,0 0.34375,-0.203125 0,-0.109375 -0.109375,-0.109375 -0.140625,-0.109375 -0.28125,0 -1,0.03125 -1.28125,0.03125 -0.28125,0 -0.984375,-0.03125 -1.28125,-0.03125 -0.078125,0 -0.1875,0 -0.1875,0.203125 0,0.109375 0.09375,0.109375 0.28125,0.109375 0.015625,0 0.203125,0 0.375,0.015625 0.171875,0.03125 0.265625,0.03125 0.265625,0.171875 0,0.03125 0,0.0625 -0.03125,0.1875 L 1.5625,-0.78125 c -0.09375,0.390625 -0.109375,0.46875 -0.90625,0.46875 -0.171875,0 -0.265625,0 -0.265625,0.203125 C 0.390625,0 0.515625,0 0.53125,0 0.8125,0 1.515625,-0.03125 1.796875,-0.03125 2,-0.03125 2.21875,-0.015625 2.4375,-0.015625 2.65625,-0.015625 2.875,0 3.078125,0 3.15625,0 3.28125,0 3.28125,-0.203125 3.28125,-0.3125 3.1875,-0.3125 3,-0.3125 c -0.375,0 -0.640625,0 -0.640625,-0.171875 0,-0.0625 0.015625,-0.109375 0.015625,-0.171875 l 0.6875,-2.734375 h 3.03125 c -0.40625,1.65625 -0.640625,2.609375 -0.6875,2.75 C 5.3125,-0.3125 5.125,-0.3125 4.5,-0.3125 c -0.140625,0 -0.234375,0 -0.234375,0.203125 C 4.265625,0 4.390625,0 4.40625,0 4.6875,0 5.390625,-0.03125 5.671875,-0.03125 5.875,-0.03125 6.09375,-0.015625 6.3125,-0.015625 6.53125,-0.015625 6.75,0 6.953125,0 7.03125,0 7.15625,0 7.15625,-0.203125 7.15625,-0.3125 7.0625,-0.3125 6.875,-0.3125 c -0.359375,0 -0.640625,0 -0.640625,-0.171875 0,-0.0625 0.015625,-0.109375 0.03125,-0.171875 z m 0,0"
               id="id-88d6de22-23bd-4eac-af62-8181b17680e5" />
          </g>
        </g>
        <g
           style="fill:#ffffff;fill-opacity:1"
           id="id-1d145ef8-1129-45dc-8a54-0ffe927fc345">
          <g
             transform="translate(157.803,131.149)"
             id="g3152"
             style="fill:#ffffff">
            <path
               style="stroke:none;fill:#ffffff"
               d="m 5.1875,-1.578125 c 0.109375,0 0.28125,0 0.28125,-0.15625 0,-0.1875 -0.171875,-0.1875 -0.28125,-0.1875 H 1.03125 c -0.109375,0 -0.28125,0 -0.28125,0.171875 0,0.171875 0.15625,0.171875 0.28125,0.171875 z m 0,0"
               id="id-eadbb41c-151d-4d91-a70b-eaa24ff00c84" />
          </g>
        </g>
        <g
           style="fill:#ffffff;fill-opacity:1"
           id="id-be5646d1-6170-4927-897b-e72a1354ea67">
          <g
             transform="translate(167.295,134.765)"
             id="g3156"
             style="fill:#ffffff">
            <path
               style="stroke:none;fill:#ffffff"
               d="m 6.5625,-4.984375 c 0.171875,0 0.359375,0 0.359375,-0.203125 0,-0.203125 -0.1875,-0.203125 -0.359375,-0.203125 H 3.890625 c -1.703125,0 -3.0625,1.296875 -3.0625,2.890625 0,1.609375 1.359375,2.90625 3.0625,2.90625 H 6.5625 c 0.171875,0 0.359375,0 0.359375,-0.203125 C 6.921875,0 6.734375,0 6.5625,0 H 3.90625 c -1.546875,0 -2.6875,-1.15625 -2.6875,-2.5 0,-1.328125 1.140625,-2.484375 2.6875,-2.484375 z m 0,0"
               id="id-c0d41120-65d3-457b-a10f-03825239f1b8" />
          </g>
        </g>
        <g
           style="fill:#ffffff;fill-opacity:1"
           id="id-76744d64-5488-4cb8-8fbe-e486aa8a4ca5">
          <g
             transform="translate(177.811,134.765)"
             id="g3160"
             style="fill:#ffffff">
            <path
               style="stroke:none;fill:#ffffff"
               d="m 0.71875,-1.046875 h 0.015625 c 0,0 0.140625,0.234375 0.453125,0.53125 -0.15625,0 -0.3125,0.03125 -0.46875,0.109375 z m 1.375,-2 c 0.78125,0.328125 1.828125,0.78125 1.828125,1.703125 0,0.703125 -0.296875,1.109375 -1.296875,1.109375 -0.515625,0 -0.953125,-0.28125 -1.296875,-0.640625 C 0.734375,-1.46875 0.71875,-2 0.71875,-2.21875 0.71875,-2.3125 0.640625,-2.390625 0.546875,-2.390625 0.375,-2.390625 0.375,-2.234375 0.375,-2.0625 v 1.859375 c 0,0.15625 0,0.328125 0.171875,0.328125 0.078125,0 0.09375,-0.03125 0.15625,-0.09375 0.171875,-0.15625 0.34375,-0.1875 0.46875,-0.1875 0.265625,0 0.5,0.09375 0.59375,0.125 C 2.171875,0.125 2.46875,0.125 2.625,0.125 c 1.4375,0 2.65625,-0.734375 2.65625,-2.03125 0,-0.84375 -0.5,-1.75 -1.9375,-2.296875 -0.875,-0.359375 -1.875,-0.75 -1.875,-1.453125 0,-0.546875 0.390625,-1.015625 1.109375,-1.015625 0.71875,0 1.671875,0.75 1.875,1.59375 C 4.46875,-4.9375 4.5,-4.84375 4.640625,-4.84375 4.8125,-4.84375 4.8125,-5 4.8125,-5.171875 V -6.6875 c 0,-0.171875 0,-0.328125 -0.171875,-0.328125 -0.078125,0 -0.125,0.046875 -0.171875,0.078125 C 4.390625,-6.84375 4.25,-6.734375 4,-6.734375 c -0.25,0 -0.484375,-0.078125 -0.59375,-0.125 -0.328125,-0.125 -0.5625,-0.15625 -0.859375,-0.15625 -1.34375,0 -2.25,0.671875 -2.25,1.984375 0,0.65625 0.265625,1.328125 1.796875,1.984375 z m 2.359375,-2.84375 c -0.0625,-0.109375 -0.15625,-0.203125 -0.4375,-0.5 0.265625,-0.015625 0.4375,-0.09375 0.4375,-0.09375 z M 4.125,-0.59375 c 0.140625,-0.28125 0.15625,-0.6875 0.15625,-0.75 0,-1.046875 -1.046875,-1.59375 -1.8125,-1.921875 -0.9375,-0.40625 -1.828125,-0.828125 -1.828125,-1.765625 0,-0.46875 0.125,-1.03125 0.671875,-1.34375 v 0.015625 c -0.171875,0.28125 -0.1875,0.625 -0.1875,0.703125 0,0.90625 1.09375,1.375 2,1.734375 0.359375,0.140625 0.875,0.34375 1.265625,0.734375 0.3125,0.359375 0.546875,0.734375 0.546875,1.28125 0,0.765625 -0.515625,1.15625 -0.8125,1.3125 z m 0,0"
               id="id-345549b0-a7b0-49a5-9dc0-e56200fb5885" />
          </g>
        </g>
        <g
           style="fill:#ffffff;fill-opacity:1"
           id="id-c3057f36-c0b2-4d40-a065-0ebafc20dc58">
          <g
             transform="translate(183.346,131.149)"
             id="g3164"
             style="fill:#ffffff">
            <path
               style="stroke:none;fill:#ffffff"
               d="M 3.515625,-1.265625 H 3.28125 c -0.015625,0.15625 -0.09375,0.5625 -0.1875,0.625 C 3.046875,-0.59375 2.515625,-0.59375 2.40625,-0.59375 H 1.125 c 0.734375,-0.640625 0.984375,-0.84375 1.390625,-1.171875 0.515625,-0.40625 1,-0.84375 1,-1.5 0,-0.84375 -0.734375,-1.359375 -1.625,-1.359375 -0.859375,0 -1.453125,0.609375 -1.453125,1.25 0,0.34375 0.296875,0.390625 0.375,0.390625 0.15625,0 0.359375,-0.125 0.359375,-0.375 0,-0.125 -0.046875,-0.375 -0.40625,-0.375 C 0.984375,-4.21875 1.453125,-4.375 1.78125,-4.375 c 0.703125,0 1.0625,0.546875 1.0625,1.109375 0,0.609375 -0.4375,1.078125 -0.65625,1.328125 L 0.515625,-0.265625 C 0.4375,-0.203125 0.4375,-0.1875 0.4375,0 h 2.875 z m 0,0"
               id="id-541e61ae-249d-4215-b0c2-6728849d5630" />
          </g>
        </g>
      </g>
    </g>
    <g
       transform="matrix(1.05833,0,0,1.05833,33.345866,139.35481)"
       ns4:version="1.3.0"
       ns4:texconverter="pdflatex"
       ns4:pdfconverter="inkscape"
       ns4:text="$H^+ \\subset \\mathbb{S}^2$"
       ns4:preamble="/usr/share/inkscape/extensions/textext/default_packages.tex"
       ns4:scale="3.0"
       ns4:alignment="middle center"
       ns4:inkscapeversion="1.0.2"
       ns4:jacobian_sqrt="1.05833"
       id="g3298"
       inkscape:export-filename="/home/macbuse/sphere.png"
       inkscape:export-xdpi="84.193672"
       inkscape:export-ydpi="84.193672"
       style="fill:#f9f9f9">
      <defs
         id="id-64b4c9b9-9676-48c7-b911-411f90f29b16">
        <g
           id="id-bd25e235-3ebf-44c7-83f8-99602dbdeca1">
          <symbol
             overflow="visible"
             id="id-ff2e70e8-b784-45ff-8e6c-428a54b66564">
            <path
               style="stroke:none"
               d=""
               id="id-b27ef0a5-7fc7-4405-b2f2-a7ac3e6611de" />
          </symbol>
          <symbol
             overflow="visible"
             id="id-54fa9828-d111-47e6-bce2-43b2d4bee8fe">
            <path
               style="stroke:none"
               d="M 7.609375,-6.046875 C 7.703125,-6.40625 7.71875,-6.5 8.4375,-6.5 c 0.265625,0 0.34375,0 0.34375,-0.203125 0,-0.109375 -0.109375,-0.109375 -0.140625,-0.109375 -0.28125,0 -1,0.03125 -1.28125,0.03125 -0.28125,0 -0.984375,-0.03125 -1.28125,-0.03125 -0.078125,0 -0.1875,0 -0.1875,0.203125 0,0.109375 0.09375,0.109375 0.28125,0.109375 0.015625,0 0.203125,0 0.375,0.015625 0.1875,0.03125 0.265625,0.03125 0.265625,0.171875 0,0.03125 0,0.046875 -0.03125,0.1875 L 6.1875,-3.703125 H 3.140625 l 0.59375,-2.34375 C 3.8125,-6.40625 3.84375,-6.5 4.5625,-6.5 c 0.265625,0 0.34375,0 0.34375,-0.203125 0,-0.109375 -0.109375,-0.109375 -0.140625,-0.109375 -0.28125,0 -1,0.03125 -1.28125,0.03125 -0.28125,0 -0.984375,-0.03125 -1.28125,-0.03125 -0.078125,0 -0.1875,0 -0.1875,0.203125 0,0.109375 0.09375,0.109375 0.28125,0.109375 0.015625,0 0.203125,0 0.375,0.015625 0.171875,0.03125 0.265625,0.03125 0.265625,0.171875 0,0.03125 0,0.0625 -0.03125,0.1875 L 1.5625,-0.78125 c -0.09375,0.390625 -0.109375,0.46875 -0.90625,0.46875 -0.171875,0 -0.265625,0 -0.265625,0.203125 C 0.390625,0 0.515625,0 0.53125,0 0.8125,0 1.515625,-0.03125 1.796875,-0.03125 2,-0.03125 2.21875,-0.015625 2.4375,-0.015625 2.65625,-0.015625 2.875,0 3.078125,0 3.15625,0 3.28125,0 3.28125,-0.203125 3.28125,-0.3125 3.1875,-0.3125 3,-0.3125 c -0.375,0 -0.640625,0 -0.640625,-0.171875 0,-0.0625 0.015625,-0.109375 0.015625,-0.171875 l 0.6875,-2.734375 h 3.03125 c -0.40625,1.65625 -0.640625,2.609375 -0.6875,2.75 C 5.3125,-0.3125 5.125,-0.3125 4.5,-0.3125 c -0.140625,0 -0.234375,0 -0.234375,0.203125 C 4.265625,0 4.390625,0 4.40625,0 4.6875,0 5.390625,-0.03125 5.671875,-0.03125 5.875,-0.03125 6.09375,-0.015625 6.3125,-0.015625 6.53125,-0.015625 6.75,0 6.953125,0 7.03125,0 7.15625,0 7.15625,-0.203125 7.15625,-0.3125 7.0625,-0.3125 6.875,-0.3125 c -0.359375,0 -0.640625,0 -0.640625,-0.171875 0,-0.0625 0.015625,-0.109375 0.03125,-0.171875 z m 0,0"
               id="id-77cb649c-d068-4a7e-ac42-18c706c5555a" />
          </symbol>
          <symbol
             overflow="visible"
             id="id-315d4a47-2583-4958-8052-4cbba83dafd1">
            <path
               style="stroke:none"
               d=""
               id="id-3e49927b-8d85-49b9-bd26-2d32ebbe2c85" />
          </symbol>
          <symbol
             overflow="visible"
             id="id-e4c56a79-e648-462e-951a-b8e77dcc03f0">
            <path
               style="stroke:none"
               d="m 3.21875,-1.578125 h 2.140625 c 0.09375,0 0.25,0 0.25,-0.15625 0,-0.1875 -0.15625,-0.1875 -0.25,-0.1875 H 3.21875 V -4.0625 c 0,-0.078125 0,-0.25 -0.15625,-0.25 -0.171875,0 -0.171875,0.15625 -0.171875,0.25 v 2.140625 H 0.75 c -0.09375,0 -0.265625,0 -0.265625,0.171875 0,0.171875 0.15625,0.171875 0.265625,0.171875 H 2.890625 V 0.5625 c 0,0.09375 0,0.265625 0.15625,0.265625 0.171875,0 0.171875,-0.171875 0.171875,-0.265625 z m 0,0"
               id="id-baf1f05f-bc0f-4c23-8431-194f8c527d22" />
          </symbol>
          <symbol
             overflow="visible"
             id="id-a132330d-598d-4855-886f-076a35d0707a">
            <path
               style="stroke:none"
               d="M 3.515625,-1.265625 H 3.28125 c -0.015625,0.15625 -0.09375,0.5625 -0.1875,0.625 C 3.046875,-0.59375 2.515625,-0.59375 2.40625,-0.59375 H 1.125 c 0.734375,-0.640625 0.984375,-0.84375 1.390625,-1.171875 0.515625,-0.40625 1,-0.84375 1,-1.5 0,-0.84375 -0.734375,-1.359375 -1.625,-1.359375 -0.859375,0 -1.453125,0.609375 -1.453125,1.25 0,0.34375 0.296875,0.390625 0.375,0.390625 0.15625,0 0.359375,-0.125 0.359375,-0.375 0,-0.125 -0.046875,-0.375 -0.40625,-0.375 C 0.984375,-4.21875 1.453125,-4.375 1.78125,-4.375 c 0.703125,0 1.0625,0.546875 1.0625,1.109375 0,0.609375 -0.4375,1.078125 -0.65625,1.328125 L 0.515625,-0.265625 C 0.4375,-0.203125 0.4375,-0.1875 0.4375,0 h 2.875 z m 0,0"
               id="id-ccd3ea26-7c5f-4949-8712-382cef2b0f41" />
          </symbol>
          <symbol
             overflow="visible"
             id="id-fddcae84-1d92-4fbd-960e-339092c2c690">
            <path
               style="stroke:none"
               d=""
               id="id-eddcd0ff-f30b-4f93-a9dc-3e29d62dc33b" />
          </symbol>
          <symbol
             overflow="visible"
             id="id-84ecbca7-c995-443c-a09d-480fb06a247c">
            <path
               style="stroke:none"
               d="m 6.5625,-4.984375 c 0.171875,0 0.359375,0 0.359375,-0.203125 0,-0.203125 -0.1875,-0.203125 -0.359375,-0.203125 H 3.890625 c -1.703125,0 -3.0625,1.296875 -3.0625,2.890625 0,1.609375 1.359375,2.90625 3.0625,2.90625 H 6.5625 c 0.171875,0 0.359375,0 0.359375,-0.203125 C 6.921875,0 6.734375,0 6.5625,0 H 3.90625 c -1.546875,0 -2.6875,-1.15625 -2.6875,-2.5 0,-1.328125 1.140625,-2.484375 2.6875,-2.484375 z m 0,0"
               id="id-7e0b292e-1539-446d-9b81-7df7dfe79d46" />
          </symbol>
          <symbol
             overflow="visible"
             id="id-f7d2424d-30c9-4a44-bd19-2dca5d4451f5">
            <path
               style="stroke:none"
               d=""
               id="id-7050a07a-f6d1-49cd-810c-06a025ff19eb" />
          </symbol>
          <symbol
             overflow="visible"
             id="id-038d208b-f288-4b92-ac8b-c9bb371eeafc">
            <path
               style="stroke:none"
               d="m 0.71875,-1.046875 h 0.015625 c 0,0 0.140625,0.234375 0.453125,0.53125 -0.15625,0 -0.3125,0.03125 -0.46875,0.109375 z m 1.375,-2 c 0.78125,0.328125 1.828125,0.78125 1.828125,1.703125 0,0.703125 -0.296875,1.109375 -1.296875,1.109375 -0.515625,0 -0.953125,-0.28125 -1.296875,-0.640625 C 0.734375,-1.46875 0.71875,-2 0.71875,-2.21875 0.71875,-2.3125 0.640625,-2.390625 0.546875,-2.390625 0.375,-2.390625 0.375,-2.234375 0.375,-2.0625 v 1.859375 c 0,0.15625 0,0.328125 0.171875,0.328125 0.078125,0 0.09375,-0.03125 0.15625,-0.09375 0.171875,-0.15625 0.34375,-0.1875 0.46875,-0.1875 0.265625,0 0.5,0.09375 0.59375,0.125 C 2.171875,0.125 2.46875,0.125 2.625,0.125 c 1.4375,0 2.65625,-0.734375 2.65625,-2.03125 0,-0.84375 -0.5,-1.75 -1.9375,-2.296875 -0.875,-0.359375 -1.875,-0.75 -1.875,-1.453125 0,-0.546875 0.390625,-1.015625 1.109375,-1.015625 0.71875,0 1.671875,0.75 1.875,1.59375 C 4.46875,-4.9375 4.5,-4.84375 4.640625,-4.84375 4.8125,-4.84375 4.8125,-5 4.8125,-5.171875 V -6.6875 c 0,-0.171875 0,-0.328125 -0.171875,-0.328125 -0.078125,0 -0.125,0.046875 -0.171875,0.078125 C 4.390625,-6.84375 4.25,-6.734375 4,-6.734375 c -0.25,0 -0.484375,-0.078125 -0.59375,-0.125 -0.328125,-0.125 -0.5625,-0.15625 -0.859375,-0.15625 -1.34375,0 -2.25,0.671875 -2.25,1.984375 0,0.65625 0.265625,1.328125 1.796875,1.984375 z m 2.359375,-2.84375 c -0.0625,-0.109375 -0.15625,-0.203125 -0.4375,-0.5 0.265625,-0.015625 0.4375,-0.09375 0.4375,-0.09375 z M 4.125,-0.59375 c 0.140625,-0.28125 0.15625,-0.6875 0.15625,-0.75 0,-1.046875 -1.046875,-1.59375 -1.8125,-1.921875 -0.9375,-0.40625 -1.828125,-0.828125 -1.828125,-1.765625 0,-0.46875 0.125,-1.03125 0.671875,-1.34375 v 0.015625 c -0.171875,0.28125 -0.1875,0.625 -0.1875,0.703125 0,0.90625 1.09375,1.375 2,1.734375 0.359375,0.140625 0.875,0.34375 1.265625,0.734375 0.3125,0.359375 0.546875,0.734375 0.546875,1.28125 0,0.765625 -0.515625,1.15625 -0.8125,1.3125 z m 0,0"
               id="id-e3b92104-49d4-404d-b131-af6f47e9fe79" />
          </symbol>
        </g>
      </defs>
      <g
         id="id-36714ed1-247e-421f-bd11-365ad333d030"
         transform="translate(-149.103,-126.524)"
         style="fill:#f9f9f9">
        <g
           style="fill:#f9f9f9;fill-opacity:1"
           id="id-950ef129-ef6a-42be-8230-c2cda488ef69">
          <g
             transform="translate(148.712,134.765)"
             id="g3384"
             style="fill:#f9f9f9">
            <path
               style="stroke:none;fill:#f9f9f9"
               d="M 7.609375,-6.046875 C 7.703125,-6.40625 7.71875,-6.5 8.4375,-6.5 c 0.265625,0 0.34375,0 0.34375,-0.203125 0,-0.109375 -0.109375,-0.109375 -0.140625,-0.109375 -0.28125,0 -1,0.03125 -1.28125,0.03125 -0.28125,0 -0.984375,-0.03125 -1.28125,-0.03125 -0.078125,0 -0.1875,0 -0.1875,0.203125 0,0.109375 0.09375,0.109375 0.28125,0.109375 0.015625,0 0.203125,0 0.375,0.015625 0.1875,0.03125 0.265625,0.03125 0.265625,0.171875 0,0.03125 0,0.046875 -0.03125,0.1875 L 6.1875,-3.703125 H 3.140625 l 0.59375,-2.34375 C 3.8125,-6.40625 3.84375,-6.5 4.5625,-6.5 c 0.265625,0 0.34375,0 0.34375,-0.203125 0,-0.109375 -0.109375,-0.109375 -0.140625,-0.109375 -0.28125,0 -1,0.03125 -1.28125,0.03125 -0.28125,0 -0.984375,-0.03125 -1.28125,-0.03125 -0.078125,0 -0.1875,0 -0.1875,0.203125 0,0.109375 0.09375,0.109375 0.28125,0.109375 0.015625,0 0.203125,0 0.375,0.015625 0.171875,0.03125 0.265625,0.03125 0.265625,0.171875 0,0.03125 0,0.0625 -0.03125,0.1875 L 1.5625,-0.78125 c -0.09375,0.390625 -0.109375,0.46875 -0.90625,0.46875 -0.171875,0 -0.265625,0 -0.265625,0.203125 C 0.390625,0 0.515625,0 0.53125,0 0.8125,0 1.515625,-0.03125 1.796875,-0.03125 2,-0.03125 2.21875,-0.015625 2.4375,-0.015625 2.65625,-0.015625 2.875,0 3.078125,0 3.15625,0 3.28125,0 3.28125,-0.203125 3.28125,-0.3125 3.1875,-0.3125 3,-0.3125 c -0.375,0 -0.640625,0 -0.640625,-0.171875 0,-0.0625 0.015625,-0.109375 0.015625,-0.171875 l 0.6875,-2.734375 h 3.03125 c -0.40625,1.65625 -0.640625,2.609375 -0.6875,2.75 C 5.3125,-0.3125 5.125,-0.3125 4.5,-0.3125 c -0.140625,0 -0.234375,0 -0.234375,0.203125 C 4.265625,0 4.390625,0 4.40625,0 4.6875,0 5.390625,-0.03125 5.671875,-0.03125 5.875,-0.03125 6.09375,-0.015625 6.3125,-0.015625 6.53125,-0.015625 6.75,0 6.953125,0 7.03125,0 7.15625,0 7.15625,-0.203125 7.15625,-0.3125 7.0625,-0.3125 6.875,-0.3125 c -0.359375,0 -0.640625,0 -0.640625,-0.171875 0,-0.0625 0.015625,-0.109375 0.03125,-0.171875 z m 0,0"
               id="id-c5e50ebd-3e9e-4f8e-99dc-840876a4c46b" />
          </g>
        </g>
        <g
           style="fill:#f9f9f9;fill-opacity:1"
           id="id-c0ea816d-1bb1-4a4b-831b-3ff494e670a2">
          <g
             transform="translate(157.803,131.149)"
             id="g3388"
             style="fill:#f9f9f9">
            <path
               style="stroke:none;fill:#f9f9f9"
               d="m 3.21875,-1.578125 h 2.140625 c 0.09375,0 0.25,0 0.25,-0.15625 0,-0.1875 -0.15625,-0.1875 -0.25,-0.1875 H 3.21875 V -4.0625 c 0,-0.078125 0,-0.25 -0.15625,-0.25 -0.171875,0 -0.171875,0.15625 -0.171875,0.25 v 2.140625 H 0.75 c -0.09375,0 -0.265625,0 -0.265625,0.171875 0,0.171875 0.15625,0.171875 0.265625,0.171875 H 2.890625 V 0.5625 c 0,0.09375 0,0.265625 0.15625,0.265625 0.171875,0 0.171875,-0.171875 0.171875,-0.265625 z m 0,0"
               id="id-cd40faea-47dc-483f-a5d3-08944158cecd" />
          </g>
        </g>
        <g
           style="fill:#f9f9f9;fill-opacity:1"
           id="id-bedf56fd-c201-4bb6-a71d-a999083120f2">
          <g
             transform="translate(167.185,134.765)"
             id="g3392"
             style="fill:#f9f9f9">
            <path
               style="stroke:none;fill:#f9f9f9"
               d="m 6.5625,-4.984375 c 0.171875,0 0.359375,0 0.359375,-0.203125 0,-0.203125 -0.1875,-0.203125 -0.359375,-0.203125 H 3.890625 c -1.703125,0 -3.0625,1.296875 -3.0625,2.890625 0,1.609375 1.359375,2.90625 3.0625,2.90625 H 6.5625 c 0.171875,0 0.359375,0 0.359375,-0.203125 C 6.921875,0 6.734375,0 6.5625,0 H 3.90625 c -1.546875,0 -2.6875,-1.15625 -2.6875,-2.5 0,-1.328125 1.140625,-2.484375 2.6875,-2.484375 z m 0,0"
               id="id-9ac9c391-dcde-4be5-addb-9720895ca557" />
          </g>
        </g>
        <g
           style="fill:#f9f9f9;fill-opacity:1"
           id="id-bb9c15ea-a894-4ab5-bcc9-3f12c4558485">
          <g
             transform="translate(177.701,134.765)"
             id="g3396"
             style="fill:#f9f9f9">
            <path
               style="stroke:none;fill:#f9f9f9"
               d="m 0.71875,-1.046875 h 0.015625 c 0,0 0.140625,0.234375 0.453125,0.53125 -0.15625,0 -0.3125,0.03125 -0.46875,0.109375 z m 1.375,-2 c 0.78125,0.328125 1.828125,0.78125 1.828125,1.703125 0,0.703125 -0.296875,1.109375 -1.296875,1.109375 -0.515625,0 -0.953125,-0.28125 -1.296875,-0.640625 C 0.734375,-1.46875 0.71875,-2 0.71875,-2.21875 0.71875,-2.3125 0.640625,-2.390625 0.546875,-2.390625 0.375,-2.390625 0.375,-2.234375 0.375,-2.0625 v 1.859375 c 0,0.15625 0,0.328125 0.171875,0.328125 0.078125,0 0.09375,-0.03125 0.15625,-0.09375 0.171875,-0.15625 0.34375,-0.1875 0.46875,-0.1875 0.265625,0 0.5,0.09375 0.59375,0.125 C 2.171875,0.125 2.46875,0.125 2.625,0.125 c 1.4375,0 2.65625,-0.734375 2.65625,-2.03125 0,-0.84375 -0.5,-1.75 -1.9375,-2.296875 -0.875,-0.359375 -1.875,-0.75 -1.875,-1.453125 0,-0.546875 0.390625,-1.015625 1.109375,-1.015625 0.71875,0 1.671875,0.75 1.875,1.59375 C 4.46875,-4.9375 4.5,-4.84375 4.640625,-4.84375 4.8125,-4.84375 4.8125,-5 4.8125,-5.171875 V -6.6875 c 0,-0.171875 0,-0.328125 -0.171875,-0.328125 -0.078125,0 -0.125,0.046875 -0.171875,0.078125 C 4.390625,-6.84375 4.25,-6.734375 4,-6.734375 c -0.25,0 -0.484375,-0.078125 -0.59375,-0.125 -0.328125,-0.125 -0.5625,-0.15625 -0.859375,-0.15625 -1.34375,0 -2.25,0.671875 -2.25,1.984375 0,0.65625 0.265625,1.328125 1.796875,1.984375 z m 2.359375,-2.84375 c -0.0625,-0.109375 -0.15625,-0.203125 -0.4375,-0.5 0.265625,-0.015625 0.4375,-0.09375 0.4375,-0.09375 z M 4.125,-0.59375 c 0.140625,-0.28125 0.15625,-0.6875 0.15625,-0.75 0,-1.046875 -1.046875,-1.59375 -1.8125,-1.921875 -0.9375,-0.40625 -1.828125,-0.828125 -1.828125,-1.765625 0,-0.46875 0.125,-1.03125 0.671875,-1.34375 v 0.015625 c -0.171875,0.28125 -0.1875,0.625 -0.1875,0.703125 0,0.90625 1.09375,1.375 2,1.734375 0.359375,0.140625 0.875,0.34375 1.265625,0.734375 0.3125,0.359375 0.546875,0.734375 0.546875,1.28125 0,0.765625 -0.515625,1.15625 -0.8125,1.3125 z m 0,0"
               id="id-e5c874a2-9c59-4fae-9365-366ba7fa4148" />
          </g>
        </g>
        <g
           style="fill:#f9f9f9;fill-opacity:1"
           id="id-5c25bccc-19b9-4877-b2a5-d78f7600195b">
          <g
             transform="translate(183.236,131.149)"
             id="g3400"
             style="fill:#f9f9f9">
            <path
               style="stroke:none;fill:#f9f9f9"
               d="M 3.515625,-1.265625 H 3.28125 c -0.015625,0.15625 -0.09375,0.5625 -0.1875,0.625 C 3.046875,-0.59375 2.515625,-0.59375 2.40625,-0.59375 H 1.125 c 0.734375,-0.640625 0.984375,-0.84375 1.390625,-1.171875 0.515625,-0.40625 1,-0.84375 1,-1.5 0,-0.84375 -0.734375,-1.359375 -1.625,-1.359375 -0.859375,0 -1.453125,0.609375 -1.453125,1.25 0,0.34375 0.296875,0.390625 0.375,0.390625 0.15625,0 0.359375,-0.125 0.359375,-0.375 0,-0.125 -0.046875,-0.375 -0.40625,-0.375 C 0.984375,-4.21875 1.453125,-4.375 1.78125,-4.375 c 0.703125,0 1.0625,0.546875 1.0625,1.109375 0,0.609375 -0.4375,1.078125 -0.65625,1.328125 L 0.515625,-0.265625 C 0.4375,-0.203125 0.4375,-0.1875 0.4375,0 h 2.875 z m 0,0"
               id="id-a19141cc-a1e4-459c-9e53-8e0f2f0c765d" />
          </g>
        </g>
      </g>
    </g>
    <g
       transform="matrix(1.41111,0,0,1.41111,83.100166,115.30077)"
       ns4:version="1.3.0"
       ns4:texconverter="pdflatex"
       ns4:pdfconverter="inkscape"
       ns4:text="$f$"
       ns4:preamble="/usr/share/inkscape/extensions/textext/default_packages.tex"
       ns4:scale="4.0"
       ns4:alignment="middle center"
       ns4:inkscapeversion="1.0.2"
       ns4:jacobian_sqrt="1.41111"
       id="g3532"
       inkscape:export-filename="/home/macbuse/sphere.png"
       inkscape:export-xdpi="84.193672"
       inkscape:export-ydpi="84.193672">
      <defs
         id="id-95042cf8-663f-4607-939c-b15cc35ad1d2">
        <g
           id="id-4e462737-e307-4080-b92d-0173815ae351">
          <symbol
             overflow="visible"
             id="id-78d87dd8-eca8-4167-a2e9-a0300b0353f4">
            <path
               style="stroke:none"
               d=""
               id="id-a5c45761-9bfd-470a-abb1-6fa69feca10f" />
          </symbol>
          <symbol
             overflow="visible"
             id="id-3c0f2a83-160c-4467-9a56-9c590ec26be1">
            <path
               style="stroke:none"
               d="m 3.65625,-3.984375 h 0.859375 c 0.203125,0 0.296875,0 0.296875,-0.203125 0,-0.109375 -0.09375,-0.109375 -0.265625,-0.109375 H 3.71875 L 3.921875,-5.4375 c 0.046875,-0.203125 0.1875,-0.90625 0.25,-1.03125 0.078125,-0.1875 0.25,-0.34375 0.46875,-0.34375 0.03125,0 0.296875,0 0.484375,0.1875 -0.4375,0.03125 -0.546875,0.390625 -0.546875,0.53125 0,0.234375 0.1875,0.359375 0.375,0.359375 C 5.21875,-5.734375 5.5,-5.96875 5.5,-6.34375 c 0,-0.453125 -0.453125,-0.6875 -0.859375,-0.6875 -0.34375,0 -0.96875,0.1875 -1.265625,1.171875 -0.0625,0.203125 -0.09375,0.3125 -0.328125,1.5625 h -0.6875 c -0.203125,0 -0.3125,0 -0.3125,0.1875 0,0.125 0.09375,0.125 0.28125,0.125 h 0.65625 L 2.25,-0.046875 c -0.1875,0.96875 -0.359375,1.875 -0.875,1.875 -0.046875,0 -0.28125,0 -0.484375,-0.1875 C 1.359375,1.609375 1.453125,1.25 1.453125,1.109375 1.453125,0.875 1.265625,0.75 1.078125,0.75 0.8125,0.75 0.53125,0.984375 0.53125,1.359375 c 0,0.4375 0.4375,0.6875 0.84375,0.6875 0.546875,0 0.953125,-0.59375 1.125,-0.96875 0.328125,-0.625 0.546875,-1.828125 0.5625,-1.90625 z m 0,0"
               id="id-ee3f4c6c-f84d-4254-939c-c291eccd4982" />
          </symbol>
        </g>
      </defs>
      <g
         id="id-412cfc7e-e14f-4a47-bbcc-15b9e4476246"
         transform="translate(-149.243,-127.734)">
        <g
           style="fill:#000000;fill-opacity:1"
           id="id-f1f4424c-016c-4529-b214-a07518a5da48">
          <g
             transform="translate(148.712,134.765)"
             id="g3641">
            <path
               style="stroke:none"
               d="m 3.65625,-3.984375 h 0.859375 c 0.203125,0 0.296875,0 0.296875,-0.203125 0,-0.109375 -0.09375,-0.109375 -0.265625,-0.109375 H 3.71875 L 3.921875,-5.4375 c 0.046875,-0.203125 0.1875,-0.90625 0.25,-1.03125 0.078125,-0.1875 0.25,-0.34375 0.46875,-0.34375 0.03125,0 0.296875,0 0.484375,0.1875 -0.4375,0.03125 -0.546875,0.390625 -0.546875,0.53125 0,0.234375 0.1875,0.359375 0.375,0.359375 C 5.21875,-5.734375 5.5,-5.96875 5.5,-6.34375 c 0,-0.453125 -0.453125,-0.6875 -0.859375,-0.6875 -0.34375,0 -0.96875,0.1875 -1.265625,1.171875 -0.0625,0.203125 -0.09375,0.3125 -0.328125,1.5625 h -0.6875 c -0.203125,0 -0.3125,0 -0.3125,0.1875 0,0.125 0.09375,0.125 0.28125,0.125 h 0.65625 L 2.25,-0.046875 c -0.1875,0.96875 -0.359375,1.875 -0.875,1.875 -0.046875,0 -0.28125,0 -0.484375,-0.1875 C 1.359375,1.609375 1.453125,1.25 1.453125,1.109375 1.453125,0.875 1.265625,0.75 1.078125,0.75 0.8125,0.75 0.53125,0.984375 0.53125,1.359375 c 0,0.4375 0.4375,0.6875 0.84375,0.6875 0.546875,0 0.953125,-0.59375 1.125,-0.96875 0.328125,-0.625 0.546875,-1.828125 0.5625,-1.90625 z m 0,0"
               id="id-d1a2a3d3-7f85-4f1f-b5e9-1dc636b71769" />
          </g>
        </g>
      </g>
    </g>
  </g>
</svg>
