<?xml version="1.0" encoding="UTF-8" standalone="no"?>
<svg
   xmlns:ns4="http://www.iki.fi/pav/software/textext/"
   xmlns:dc="http://purl.org/dc/elements/1.1/"
   xmlns:cc="http://creativecommons.org/ns#"
   xmlns:rdf="http://www.w3.org/1999/02/22-rdf-syntax-ns#"
   xmlns:svg="http://www.w3.org/2000/svg"
   xmlns="http://www.w3.org/2000/svg"
   xmlns:xlink="http://www.w3.org/1999/xlink"
   xmlns:sodipodi="http://sodipodi.sourceforge.net/DTD/sodipodi-0.dtd"
   xmlns:inkscape="http://www.inkscape.org/namespaces/inkscape"
   width="297mm"
   height="210mm"
   viewBox="0 0 297 210"
   version="1.1"
   id="svg8"
   inkscape:version="1.0.2 (e86c870879, 2021-01-15)"
   sodipodi:docname="spheres.svg"
   inkscape:export-filename="/home/macbuse/ALG_TOP/sphere.png"
   inkscape:export-xdpi="84.193672"
   inkscape:export-ydpi="84.193672">
  <defs
     id="defs2">
    <marker
       style="overflow:visible;"
       id="marker1338"
       refX="0.0"
       refY="0.0"
       orient="auto"
       inkscape:stockid="Arrow2Mend"
       inkscape:isstock="true">
      <path
         transform="scale(0.6) rotate(180) translate(0,0)"
         d="M 8.7185878,4.0337352 L -2.2072895,0.016013256 L 8.7185884,-4.0017078 C 6.9730900,-1.6296469 6.9831476,1.6157441 8.7185878,4.0337352 z "
         style="fill-rule:evenodd;stroke-width:0.625;stroke-linejoin:round;stroke:#000000;stroke-opacity:1;fill:#000000;fill-opacity:1"
         id="path1336" />
    </marker>
    <marker
       style="overflow:visible;"
       id="Arrow2Mend"
       refX="0.0"
       refY="0.0"
       orient="auto"
       inkscape:stockid="Arrow2Mend"
       inkscape:isstock="true"
       inkscape:collect="always">
      <path
         transform="scale(0.6) rotate(180) translate(0,0)"
         d="M 8.7185878,4.0337352 L -2.2072895,0.016013256 L 8.7185884,-4.0017078 C 6.9730900,-1.6296469 6.9831476,1.6157441 8.7185878,4.0337352 z "
         style="fill-rule:evenodd;stroke-width:0.625;stroke-linejoin:round;stroke:#000000;stroke-opacity:1;fill:#000000;fill-opacity:1"
         id="path985" />
    </marker>
    <marker
       style="overflow:visible;"
       id="Arrow1Mend"
       refX="0.0"
       refY="0.0"
       orient="auto"
       inkscape:stockid="Arrow1Mend"
       inkscape:isstock="true">
      <path
         transform="scale(0.4) rotate(180) translate(10,0)"
         style="fill-rule:evenodd;stroke:#000000;stroke-width:1pt;stroke-opacity:1;fill:#000000;fill-opacity:1"
         d="M 0.0,0.0 L 5.0,-5.0 L -12.5,0.0 L 5.0,5.0 L 0.0,0.0 z "
         id="path967" />
    </marker>
    <marker
       style="overflow:visible;"
       id="Arrow1Lend"
       refX="0.0"
       refY="0.0"
       orient="auto"
       inkscape:stockid="Arrow1Lend"
       inkscape:isstock="true">
      <path
         transform="scale(0.8) rotate(180) translate(12.5,0)"
         style="fill-rule:evenodd;stroke:#000000;stroke-width:1pt;stroke-opacity:1;fill:#000000;fill-opacity:1"
         d="M 0.0,0.0 L 5.0,-5.0 L -12.5,0.0 L 5.0,5.0 L 0.0,0.0 z "
         id="path961" />
    </marker>
    <linearGradient
       inkscape:collect="always"
       id="linearGradient949">
      <stop
         style="stop-color:#ffd5d5;stop-opacity:1"
         offset="0"
         id="stop945" />
      <stop
         style="stop-color:#6f0200;stop-opacity:1"
         offset="1"
         id="stop947" />
    </linearGradient>
    <linearGradient
       inkscape:collect="always"
       id="linearGradient865">
      <stop
         style="stop-color:#ffd5d5;stop-opacity:1"
         offset="0"
         id="stop861" />
      <stop
         style="stop-color:#aa0000;stop-opacity:1"
         offset="1"
         id="stop863" />
    </linearGradient>
    <radialGradient
       inkscape:collect="always"
       xlink:href="#linearGradient865"
       id="radialGradient867"
       cx="86.323265"
       cy="116.77386"
       fx="86.323265"
       fy="116.77386"
       r="28.172516"
       gradientTransform="matrix(0.99387643,0,0,0.9938764,-23.501469,-35.16119)"
       gradientUnits="userSpaceOnUse" />
    <radialGradient
       inkscape:collect="always"
       xlink:href="#linearGradient865"
       id="radialGradient911"
       gradientUnits="userSpaceOnUse"
       gradientTransform="matrix(0.78090289,0,0,0.78090287,48.443913,12.056337)"
       cx="86.323265"
       cy="116.77386"
       fx="86.323265"
       fy="116.77386"
       r="28.172516" />
    <radialGradient
       inkscape:collect="always"
       xlink:href="#linearGradient949"
       id="radialGradient915"
       gradientUnits="userSpaceOnUse"
       gradientTransform="matrix(0.78090289,0,0,0.78090287,47.914746,55.97717)"
       cx="86.323265"
       cy="116.77386"
       fx="86.323265"
       fy="116.77386"
       r="28.172516" />
    <radialGradient
       inkscape:collect="always"
       xlink:href="#linearGradient865"
       id="radialGradient953"
       gradientUnits="userSpaceOnUse"
       gradientTransform="matrix(0.78090289,0,0,0.78090287,-10.822431,54.949093)"
       cx="86.323265"
       cy="116.77386"
       fx="86.323265"
       fy="116.77386"
       r="28.172516" />
  </defs>
  <sodipodi:namedview
     id="base"
     pagecolor="#ffffff"
     bordercolor="#666666"
     borderopacity="1.0"
     inkscape:pageopacity="0.0"
     inkscape:pageshadow="2"
     inkscape:zoom="0.98994949"
     inkscape:cx="373.41473"
     inkscape:cy="463.63956"
     inkscape:document-units="mm"
     inkscape:current-layer="layer2"
     inkscape:document-rotation="0"
     showgrid="false"
     inkscape:window-width="1181"
     inkscape:window-height="627"
     inkscape:window-x="0"
     inkscape:window-y="0"
     inkscape:window-maximized="1" />
  <metadata
     id="metadata5">
    <rdf:RDF>
      <cc:Work
         rdf:about="">
        <dc:format>image/svg+xml</dc:format>
        <dc:type
           rdf:resource="http://purl.org/dc/dcmitype/StillImage" />
        <dc:title></dc:title>
      </cc:Work>
    </rdf:RDF>
  </metadata>
  <g
     inkscape:label="Layer 1"
     inkscape:groupmode="layer"
     id="layer1">
    <circle
       style="fill:url(#radialGradient915);fill-opacity:1;stroke:#000000;stroke-width:0.3;stroke-miterlimit:4;stroke-dasharray:none;stop-color:#000000"
       id="circle913"
       cx="107.18941"
       cy="154.42662"
       r="22" />
    <circle
       style="fill:url(#radialGradient867);fill-opacity:1;stroke:#0000ff;stroke-width:0;stop-color:#000000"
       id="path851"
       cx="51.939018"
       cy="90.138092"
       r="28" />
    <circle
       style="fill:url(#radialGradient911);fill-opacity:1;stroke:#0000ff;stroke-width:0;stop-color:#000000"
       id="circle909"
       cx="107.71857"
       cy="110.50576"
       r="22" />
    <path
       style="fill:#2b0000;fill-opacity:0.42;stroke:#000000;stroke-width:0.264583px;stroke-linecap:butt;stroke-linejoin:miter;stroke-opacity:1"
       d="m 24.423813,91.001072 c 0.09284,11.051168 9.705963,27.360858 27.249769,27.195248 25.36467,-0.23944 27.886778,-26.199878 27.886778,-26.199878 0,0 -38.688431,15.070218 -55.136547,-0.99537 z"
       id="path941"
       sodipodi:nodetypes="cscc" />
    <circle
       style="fill:url(#radialGradient953);fill-opacity:1;stroke:#0000ff;stroke-width:0;stop-color:#000000"
       id="circle951"
       cx="48.452232"
       cy="153.39854"
       r="22" />
  </g>
  <g
     inkscape:groupmode="layer"
     id="layer2"
     inkscape:label="text">
    <path
       style="fill:none;stroke:#000000;stroke-width:2;stroke-linecap:butt;stroke-linejoin:miter;stroke-miterlimit:4;stroke-dasharray:none;stroke-opacity:1;marker-end:url(#Arrow2Mend)"
       d="M 69.035927,73.856175 C 92.055212,68.659382 107.74057,85.333041 109.43852,101.17404"
       id="path956"
       sodipodi:nodetypes="cc"
       inkscape:export-filename="/home/macbuse/sphere.png"
       inkscape:export-xdpi="84.193672"
       inkscape:export-ydpi="84.193672" />
    <path
       style="fill:none;stroke:#000000;stroke-width:2;stroke-linecap:butt;stroke-linejoin:miter;stroke-miterlimit:4;stroke-dasharray:none;stroke-opacity:1;marker-end:url(#marker1338)"
       d="m 102.22131,163.87836 c -7.856964,5.58794 -35.509938,14.72273 -52.342026,6.62334"
       id="path1334"
       sodipodi:nodetypes="cc"
       inkscape:export-filename="/home/macbuse/sphere.png"
       inkscape:export-xdpi="84.193672"
       inkscape:export-ydpi="84.193672" />
    <text
       xml:space="preserve"
       style="font-style:normal;font-weight:normal;font-size:10.5833px;line-height:1.25;font-family:sans-serif;fill:#000000;fill-opacity:1;stroke:none;stroke-width:0.264583"
       x="46.421375"
       y="81.460831"
       id="text1398"
       inkscape:export-filename="/home/macbuse/sphere.png"
       inkscape:export-xdpi="84.193672"
       inkscape:export-ydpi="84.193672"><tspan
         sodipodi:role="line"
         id="tspan1396"
         x="46.421375"
         y="81.460831"
         style="stroke-width:0.264583" /></text>
    <g
       transform="matrix(1.41111,0,0,1.41111,32.382556,78.761394)"
       ns4:version="1.3.0"
       ns4:texconverter="pdflatex"
       ns4:pdfconverter="inkscape"
       ns4:text="$X = \\mathbb{S}^2$"
       ns4:preamble="/usr/share/inkscape/extensions/textext/default_packages.tex"
       ns4:scale="4.0"
       ns4:alignment="middle center"
       ns4:inkscapeversion="1.0.2"
       ns4:jacobian_sqrt="1.41111"
       id="g1466"
       inkscape:export-filename="/home/macbuse/sphere.png"
       inkscape:export-xdpi="84.193672"
       inkscape:export-ydpi="84.193672">
      <defs
         id="id-3b134f6c-539a-4ede-86ac-287879f33c76">
        <g
           id="id-bbb426d1-57a5-47d1-aaea-804cb7919fe2">
          <symbol
             overflow="visible"
             id="id-47b81ee7-053b-46d7-9d1e-42ebc481b7cb">
            <path
               style="stroke:none;stroke-width:0"
               d=""
               id="id-9e934768-877c-4022-ae73-3d31cdf43564" />
          </symbol>
          <symbol
             overflow="visible"
             id="id-188baa6b-ba62-4d81-acee-ea34442e0d65">
            <path
               style="stroke:none;stroke-width:0"
               d="M 4.828125,-4.09375 4,-6.078125 c -0.03125,-0.078125 -0.046875,-0.125 -0.046875,-0.125 0,-0.0625 0.15625,-0.25 0.578125,-0.296875 0.109375,-0.015625 0.203125,-0.015625 0.203125,-0.1875 0,-0.125 -0.125,-0.125 -0.15625,-0.125 -0.40625,0 -0.828125,0.03125 -1.25,0.03125 -0.25,0 -0.859375,-0.03125 -1.109375,-0.03125 -0.0625,0 -0.1875,0 -0.1875,0.203125 C 2.03125,-6.5 2.140625,-6.5 2.265625,-6.5 c 0.59375,0 0.65625,0.09375 0.75,0.3125 l 1.171875,2.78125 -2.109375,2.265625 -0.125,0.109375 C 1.46875,-0.5 1,-0.34375 0.484375,-0.3125 c -0.125,0.015625 -0.21875,0.015625 -0.21875,0.203125 0,0.015625 0,0.109375 0.140625,0.109375 0.296875,0 0.625,-0.03125 0.921875,-0.03125 C 1.703125,-0.03125 2.09375,0 2.453125,0 2.515625,0 2.625,0 2.625,-0.203125 2.625,-0.296875 2.53125,-0.3125 2.515625,-0.3125 c -0.09375,0 -0.40625,-0.03125 -0.40625,-0.3125 0,-0.15625 0.15625,-0.3125 0.265625,-0.4375 L 3.40625,-2.140625 4.296875,-3.125 l 1,2.390625 c 0.046875,0.109375 0.0625,0.109375 0.0625,0.140625 0,0.078125 -0.203125,0.25 -0.578125,0.28125 C 4.671875,-0.296875 4.578125,-0.296875 4.578125,-0.125 4.578125,0 4.6875,0 4.71875,0 5,0 5.703125,-0.03125 5.984375,-0.03125 6.234375,-0.03125 6.84375,0 7.09375,0 c 0.0625,0 0.1875,0 0.1875,-0.1875 0,-0.125 -0.109375,-0.125 -0.1875,-0.125 -0.65625,0 -0.6875,-0.03125 -0.859375,-0.4375 C 5.859375,-1.671875 5.1875,-3.234375 4.953125,-3.828125 5.625,-4.53125 6.671875,-5.71875 7,-5.984375 7.28125,-6.234375 7.671875,-6.46875 8.265625,-6.5 c 0.125,-0.015625 0.21875,-0.015625 0.21875,-0.203125 0,0 0,-0.109375 -0.125,-0.109375 -0.296875,0 -0.640625,0.03125 -0.9375,0.03125 -0.375,0 -0.75,-0.03125 -1.109375,-0.03125 -0.0625,0 -0.1875,0 -0.1875,0.203125 0,0.0625 0.046875,0.09375 0.109375,0.109375 0.09375,0.015625 0.40625,0.03125 0.40625,0.3125 0,0.140625 -0.109375,0.265625 -0.1875,0.359375 z m 0,0"
               id="id-f869d01d-95e8-4167-be43-69e11bbff2c0" />
          </symbol>
          <symbol
             overflow="visible"
             id="id-c4619588-fba9-4c5a-84d4-3144fae3bd41">
            <path
               style="stroke:none;stroke-width:0"
               d=""
               id="id-b9132027-af40-4a3a-a091-6c7c30895a3b" />
          </symbol>
          <symbol
             overflow="visible"
             id="id-a4b3a291-3ce9-41c5-a4b5-77d75203e832">
            <path
               style="stroke:none;stroke-width:0"
               d="m 6.84375,-3.265625 c 0.15625,0 0.34375,0 0.34375,-0.1875 C 7.1875,-3.65625 7,-3.65625 6.859375,-3.65625 h -5.96875 c -0.140625,0 -0.328125,0 -0.328125,0.203125 0,0.1875 0.1875,0.1875 0.328125,0.1875 z m 0.015625,1.9375 c 0.140625,0 0.328125,0 0.328125,-0.203125 0,-0.1875 -0.1875,-0.1875 -0.34375,-0.1875 H 0.890625 c -0.140625,0 -0.328125,0 -0.328125,0.1875 0,0.203125 0.1875,0.203125 0.328125,0.203125 z m 0,0"
               id="id-a59e2e32-5677-468e-9423-bf79b3503258" />
          </symbol>
          <symbol
             overflow="visible"
             id="id-037f9d71-4e6c-4bad-bb53-dc106b51c3b3">
            <path
               style="stroke:none;stroke-width:0"
               d=""
               id="id-c5785e24-ad45-4705-bb60-293bca380aa0" />
          </symbol>
          <symbol
             overflow="visible"
             id="id-07d41ba2-7253-4ae9-b3b5-bd9c599b4263">
            <path
               style="stroke:none;stroke-width:0"
               d="m 0.71875,-1.046875 h 0.015625 c 0,0 0.140625,0.234375 0.453125,0.53125 -0.15625,0 -0.3125,0.03125 -0.46875,0.109375 z m 1.375,-2 c 0.78125,0.328125 1.828125,0.78125 1.828125,1.703125 0,0.703125 -0.296875,1.109375 -1.296875,1.109375 -0.515625,0 -0.953125,-0.28125 -1.296875,-0.640625 C 0.734375,-1.46875 0.71875,-2 0.71875,-2.21875 0.71875,-2.3125 0.640625,-2.390625 0.546875,-2.390625 0.375,-2.390625 0.375,-2.234375 0.375,-2.0625 v 1.859375 c 0,0.15625 0,0.328125 0.171875,0.328125 0.078125,0 0.09375,-0.03125 0.15625,-0.09375 0.171875,-0.15625 0.34375,-0.1875 0.46875,-0.1875 0.265625,0 0.5,0.09375 0.59375,0.125 C 2.171875,0.125 2.46875,0.125 2.625,0.125 c 1.4375,0 2.65625,-0.734375 2.65625,-2.03125 0,-0.84375 -0.5,-1.75 -1.9375,-2.296875 -0.875,-0.359375 -1.875,-0.75 -1.875,-1.453125 0,-0.546875 0.390625,-1.015625 1.109375,-1.015625 0.71875,0 1.671875,0.75 1.875,1.59375 C 4.46875,-4.9375 4.5,-4.84375 4.640625,-4.84375 4.8125,-4.84375 4.8125,-5 4.8125,-5.171875 V -6.6875 c 0,-0.171875 0,-0.328125 -0.171875,-0.328125 -0.078125,0 -0.125,0.046875 -0.171875,0.078125 C 4.390625,-6.84375 4.25,-6.734375 4,-6.734375 c -0.25,0 -0.484375,-0.078125 -0.59375,-0.125 -0.328125,-0.125 -0.5625,-0.15625 -0.859375,-0.15625 -1.34375,0 -2.25,0.671875 -2.25,1.984375 0,0.65625 0.265625,1.328125 1.796875,1.984375 z m 2.359375,-2.84375 c -0.0625,-0.109375 -0.15625,-0.203125 -0.4375,-0.5 0.265625,-0.015625 0.4375,-0.09375 0.4375,-0.09375 z M 4.125,-0.59375 c 0.140625,-0.28125 0.15625,-0.6875 0.15625,-0.75 0,-1.046875 -1.046875,-1.59375 -1.8125,-1.921875 -0.9375,-0.40625 -1.828125,-0.828125 -1.828125,-1.765625 0,-0.46875 0.125,-1.03125 0.671875,-1.34375 v 0.015625 c -0.171875,0.28125 -0.1875,0.625 -0.1875,0.703125 0,0.90625 1.09375,1.375 2,1.734375 0.359375,0.140625 0.875,0.34375 1.265625,0.734375 0.3125,0.359375 0.546875,0.734375 0.546875,1.28125 0,0.765625 -0.515625,1.15625 -0.8125,1.3125 z m 0,0"
               id="id-02d18134-d639-438c-8f89-4a5926cffda2" />
          </symbol>
          <symbol
             overflow="visible"
             id="id-3e5899ad-2a98-46a4-8ab1-3c1f36b2e451">
            <path
               style="stroke:none;stroke-width:0"
               d=""
               id="id-0d3f0ef0-b9c9-4917-83aa-fc26e4ca767f" />
          </symbol>
          <symbol
             overflow="visible"
             id="id-4ca3d539-4859-4165-8587-a73df921ca55">
            <path
               style="stroke:none;stroke-width:0"
               d="M 3.515625,-1.265625 H 3.28125 c -0.015625,0.15625 -0.09375,0.5625 -0.1875,0.625 C 3.046875,-0.59375 2.515625,-0.59375 2.40625,-0.59375 H 1.125 c 0.734375,-0.640625 0.984375,-0.84375 1.390625,-1.171875 0.515625,-0.40625 1,-0.84375 1,-1.5 0,-0.84375 -0.734375,-1.359375 -1.625,-1.359375 -0.859375,0 -1.453125,0.609375 -1.453125,1.25 0,0.34375 0.296875,0.390625 0.375,0.390625 0.15625,0 0.359375,-0.125 0.359375,-0.375 0,-0.125 -0.046875,-0.375 -0.40625,-0.375 C 0.984375,-4.21875 1.453125,-4.375 1.78125,-4.375 c 0.703125,0 1.0625,0.546875 1.0625,1.109375 0,0.609375 -0.4375,1.078125 -0.65625,1.328125 L 0.515625,-0.265625 C 0.4375,-0.203125 0.4375,-0.1875 0.4375,0 h 2.875 z m 0,0"
               id="id-59933e69-a4b4-46f0-af04-8a090214e5a1" />
          </symbol>
        </g>
      </defs>
      <g
         id="id-aa056d64-1ace-4c9b-9fa1-10cea56c903e"
         transform="translate(-148.978,-126.524)">
        <g
           style="fill:#000000;fill-opacity:1"
           id="id-dfea1052-82d6-434b-8307-00aeaf4d63b1">
          <g
             transform="translate(148.712,134.765)"
             id="g1450">
            <path
               style="stroke:none;stroke-width:0"
               d="M 4.828125,-4.09375 4,-6.078125 c -0.03125,-0.078125 -0.046875,-0.125 -0.046875,-0.125 0,-0.0625 0.15625,-0.25 0.578125,-0.296875 0.109375,-0.015625 0.203125,-0.015625 0.203125,-0.1875 0,-0.125 -0.125,-0.125 -0.15625,-0.125 -0.40625,0 -0.828125,0.03125 -1.25,0.03125 -0.25,0 -0.859375,-0.03125 -1.109375,-0.03125 -0.0625,0 -0.1875,0 -0.1875,0.203125 C 2.03125,-6.5 2.140625,-6.5 2.265625,-6.5 c 0.59375,0 0.65625,0.09375 0.75,0.3125 l 1.171875,2.78125 -2.109375,2.265625 -0.125,0.109375 C 1.46875,-0.5 1,-0.34375 0.484375,-0.3125 c -0.125,0.015625 -0.21875,0.015625 -0.21875,0.203125 0,0.015625 0,0.109375 0.140625,0.109375 0.296875,0 0.625,-0.03125 0.921875,-0.03125 C 1.703125,-0.03125 2.09375,0 2.453125,0 2.515625,0 2.625,0 2.625,-0.203125 2.625,-0.296875 2.53125,-0.3125 2.515625,-0.3125 c -0.09375,0 -0.40625,-0.03125 -0.40625,-0.3125 0,-0.15625 0.15625,-0.3125 0.265625,-0.4375 L 3.40625,-2.140625 4.296875,-3.125 l 1,2.390625 c 0.046875,0.109375 0.0625,0.109375 0.0625,0.140625 0,0.078125 -0.203125,0.25 -0.578125,0.28125 C 4.671875,-0.296875 4.578125,-0.296875 4.578125,-0.125 4.578125,0 4.6875,0 4.71875,0 5,0 5.703125,-0.03125 5.984375,-0.03125 6.234375,-0.03125 6.84375,0 7.09375,0 c 0.0625,0 0.1875,0 0.1875,-0.1875 0,-0.125 -0.109375,-0.125 -0.1875,-0.125 -0.65625,0 -0.6875,-0.03125 -0.859375,-0.4375 C 5.859375,-1.671875 5.1875,-3.234375 4.953125,-3.828125 5.625,-4.53125 6.671875,-5.71875 7,-5.984375 7.28125,-6.234375 7.671875,-6.46875 8.265625,-6.5 c 0.125,-0.015625 0.21875,-0.015625 0.21875,-0.203125 0,0 0,-0.109375 -0.125,-0.109375 -0.296875,0 -0.640625,0.03125 -0.9375,0.03125 -0.375,0 -0.75,-0.03125 -1.109375,-0.03125 -0.0625,0 -0.1875,0 -0.1875,0.203125 0,0.0625 0.046875,0.09375 0.109375,0.109375 0.09375,0.015625 0.40625,0.03125 0.40625,0.3125 0,0.140625 -0.109375,0.265625 -0.1875,0.359375 z m 0,0"
               id="id-60b21d48-d5da-4bb1-a38f-b933cbb5ddc0" />
          </g>
        </g>
        <g
           style="fill:#000000;fill-opacity:1"
           id="id-82991d05-3859-4e60-8206-d81d7e7102f6">
          <g
             transform="translate(160.515,134.765)"
             id="g1454">
            <path
               style="stroke:none;stroke-width:0"
               d="m 6.84375,-3.265625 c 0.15625,0 0.34375,0 0.34375,-0.1875 C 7.1875,-3.65625 7,-3.65625 6.859375,-3.65625 h -5.96875 c -0.140625,0 -0.328125,0 -0.328125,0.203125 0,0.1875 0.1875,0.1875 0.328125,0.1875 z m 0.015625,1.9375 c 0.140625,0 0.328125,0 0.328125,-0.203125 0,-0.1875 -0.1875,-0.1875 -0.34375,-0.1875 H 0.890625 c -0.140625,0 -0.328125,0 -0.328125,0.1875 0,0.203125 0.1875,0.203125 0.328125,0.203125 z m 0,0"
               id="id-79237f78-0086-410f-af39-86ae31e23cd0" />
          </g>
        </g>
        <g
           style="fill:#000000;fill-opacity:1"
           id="id-d5e052d9-868e-48ff-a73f-787ad737e590">
          <g
             transform="translate(171.031,134.765)"
             id="g1458">
            <path
               style="stroke:none;stroke-width:0"
               d="m 0.71875,-1.046875 h 0.015625 c 0,0 0.140625,0.234375 0.453125,0.53125 -0.15625,0 -0.3125,0.03125 -0.46875,0.109375 z m 1.375,-2 c 0.78125,0.328125 1.828125,0.78125 1.828125,1.703125 0,0.703125 -0.296875,1.109375 -1.296875,1.109375 -0.515625,0 -0.953125,-0.28125 -1.296875,-0.640625 C 0.734375,-1.46875 0.71875,-2 0.71875,-2.21875 0.71875,-2.3125 0.640625,-2.390625 0.546875,-2.390625 0.375,-2.390625 0.375,-2.234375 0.375,-2.0625 v 1.859375 c 0,0.15625 0,0.328125 0.171875,0.328125 0.078125,0 0.09375,-0.03125 0.15625,-0.09375 0.171875,-0.15625 0.34375,-0.1875 0.46875,-0.1875 0.265625,0 0.5,0.09375 0.59375,0.125 C 2.171875,0.125 2.46875,0.125 2.625,0.125 c 1.4375,0 2.65625,-0.734375 2.65625,-2.03125 0,-0.84375 -0.5,-1.75 -1.9375,-2.296875 -0.875,-0.359375 -1.875,-0.75 -1.875,-1.453125 0,-0.546875 0.390625,-1.015625 1.109375,-1.015625 0.71875,0 1.671875,0.75 1.875,1.59375 C 4.46875,-4.9375 4.5,-4.84375 4.640625,-4.84375 4.8125,-4.84375 4.8125,-5 4.8125,-5.171875 V -6.6875 c 0,-0.171875 0,-0.328125 -0.171875,-0.328125 -0.078125,0 -0.125,0.046875 -0.171875,0.078125 C 4.390625,-6.84375 4.25,-6.734375 4,-6.734375 c -0.25,0 -0.484375,-0.078125 -0.59375,-0.125 -0.328125,-0.125 -0.5625,-0.15625 -0.859375,-0.15625 -1.34375,0 -2.25,0.671875 -2.25,1.984375 0,0.65625 0.265625,1.328125 1.796875,1.984375 z m 2.359375,-2.84375 c -0.0625,-0.109375 -0.15625,-0.203125 -0.4375,-0.5 0.265625,-0.015625 0.4375,-0.09375 0.4375,-0.09375 z M 4.125,-0.59375 c 0.140625,-0.28125 0.15625,-0.6875 0.15625,-0.75 0,-1.046875 -1.046875,-1.59375 -1.8125,-1.921875 -0.9375,-0.40625 -1.828125,-0.828125 -1.828125,-1.765625 0,-0.46875 0.125,-1.03125 0.671875,-1.34375 v 0.015625 c -0.171875,0.28125 -0.1875,0.625 -0.1875,0.703125 0,0.90625 1.09375,1.375 2,1.734375 0.359375,0.140625 0.875,0.34375 1.265625,0.734375 0.3125,0.359375 0.546875,0.734375 0.546875,1.28125 0,0.765625 -0.515625,1.15625 -0.8125,1.3125 z m 0,0"
               id="id-dafd95e4-836a-4e9d-8eb4-cbb92e9004d7" />
          </g>
        </g>
        <g
           style="fill:#000000;fill-opacity:1"
           id="id-3bdf427d-a283-4864-9553-8d1c7cb542bc">
          <g
             transform="translate(176.566,131.149)"
             id="g1462">
            <path
               style="stroke:none;stroke-width:0"
               d="M 3.515625,-1.265625 H 3.28125 c -0.015625,0.15625 -0.09375,0.5625 -0.1875,0.625 C 3.046875,-0.59375 2.515625,-0.59375 2.40625,-0.59375 H 1.125 c 0.734375,-0.640625 0.984375,-0.84375 1.390625,-1.171875 0.515625,-0.40625 1,-0.84375 1,-1.5 0,-0.84375 -0.734375,-1.359375 -1.625,-1.359375 -0.859375,0 -1.453125,0.609375 -1.453125,1.25 0,0.34375 0.296875,0.390625 0.375,0.390625 0.15625,0 0.359375,-0.125 0.359375,-0.375 0,-0.125 -0.046875,-0.375 -0.40625,-0.375 C 0.984375,-4.21875 1.453125,-4.375 1.78125,-4.375 c 0.703125,0 1.0625,0.546875 1.0625,1.109375 0,0.609375 -0.4375,1.078125 -0.65625,1.328125 L 0.515625,-0.265625 C 0.4375,-0.203125 0.4375,-0.1875 0.4375,0 h 2.875 z m 0,0"
               id="id-855573f2-364f-4562-a40b-e9d48bec94e1" />
          </g>
        </g>
      </g>
    </g>
    <g
       transform="matrix(1.41111,0,0,1.41111,90.976835,113.59747)"
       ns4:version="1.3.0"
       ns4:texconverter="pdflatex"
       ns4:pdfconverter="inkscape"
       ns4:text="$ \\mathbb{S}^2/E$"
       ns4:preamble="/usr/share/inkscape/extensions/textext/default_packages.tex"
       ns4:scale="4.0"
       ns4:alignment="middle center"
       ns4:inkscapeversion="1.0.2"
       ns4:jacobian_sqrt="1.41111"
       id="g1564"
       inkscape:export-filename="/home/macbuse/sphere.png"
       inkscape:export-xdpi="84.193672"
       inkscape:export-ydpi="84.193672">
      <defs
         id="id-1caecf02-2585-41c9-9424-d1f2c4173973">
        <g
           id="id-4d0bb65c-2f04-4241-baab-a55deaa5c749">
          <symbol
             overflow="visible"
             id="id-941d0a90-c129-4e84-a4a8-3787984b839d">
            <path
               style="stroke:none"
               d=""
               id="id-dfc70980-b303-45b3-92c5-d2b7b8c4dfae" />
          </symbol>
          <symbol
             overflow="visible"
             id="id-3836f349-18de-4ab6-ba63-a4cfc2b86500">
            <path
               style="stroke:none"
               d="m 0.71875,-1.046875 h 0.015625 c 0,0 0.140625,0.234375 0.453125,0.53125 -0.15625,0 -0.3125,0.03125 -0.46875,0.109375 z m 1.375,-2 c 0.78125,0.328125 1.828125,0.78125 1.828125,1.703125 0,0.703125 -0.296875,1.109375 -1.296875,1.109375 -0.515625,0 -0.953125,-0.28125 -1.296875,-0.640625 C 0.734375,-1.46875 0.71875,-2 0.71875,-2.21875 0.71875,-2.3125 0.640625,-2.390625 0.546875,-2.390625 0.375,-2.390625 0.375,-2.234375 0.375,-2.0625 v 1.859375 c 0,0.15625 0,0.328125 0.171875,0.328125 0.078125,0 0.09375,-0.03125 0.15625,-0.09375 0.171875,-0.15625 0.34375,-0.1875 0.46875,-0.1875 0.265625,0 0.5,0.09375 0.59375,0.125 C 2.171875,0.125 2.46875,0.125 2.625,0.125 c 1.4375,0 2.65625,-0.734375 2.65625,-2.03125 0,-0.84375 -0.5,-1.75 -1.9375,-2.296875 -0.875,-0.359375 -1.875,-0.75 -1.875,-1.453125 0,-0.546875 0.390625,-1.015625 1.109375,-1.015625 0.71875,0 1.671875,0.75 1.875,1.59375 C 4.46875,-4.9375 4.5,-4.84375 4.640625,-4.84375 4.8125,-4.84375 4.8125,-5 4.8125,-5.171875 V -6.6875 c 0,-0.171875 0,-0.328125 -0.171875,-0.328125 -0.078125,0 -0.125,0.046875 -0.171875,0.078125 C 4.390625,-6.84375 4.25,-6.734375 4,-6.734375 c -0.25,0 -0.484375,-0.078125 -0.59375,-0.125 -0.328125,-0.125 -0.5625,-0.15625 -0.859375,-0.15625 -1.34375,0 -2.25,0.671875 -2.25,1.984375 0,0.65625 0.265625,1.328125 1.796875,1.984375 z m 2.359375,-2.84375 c -0.0625,-0.109375 -0.15625,-0.203125 -0.4375,-0.5 0.265625,-0.015625 0.4375,-0.09375 0.4375,-0.09375 z M 4.125,-0.59375 c 0.140625,-0.28125 0.15625,-0.6875 0.15625,-0.75 0,-1.046875 -1.046875,-1.59375 -1.8125,-1.921875 -0.9375,-0.40625 -1.828125,-0.828125 -1.828125,-1.765625 0,-0.46875 0.125,-1.03125 0.671875,-1.34375 v 0.015625 c -0.171875,0.28125 -0.1875,0.625 -0.1875,0.703125 0,0.90625 1.09375,1.375 2,1.734375 0.359375,0.140625 0.875,0.34375 1.265625,0.734375 0.3125,0.359375 0.546875,0.734375 0.546875,1.28125 0,0.765625 -0.515625,1.15625 -0.8125,1.3125 z m 0,0"
               id="id-85ba828c-9d7c-4e65-9a01-f7d219e98dc1" />
          </symbol>
          <symbol
             overflow="visible"
             id="id-79ed50c9-247e-4198-b826-e40a23fd1e09">
            <path
               style="stroke:none"
               d=""
               id="id-779c207e-d0f0-4b1d-9d50-0e38ad802ed5" />
          </symbol>
          <symbol
             overflow="visible"
             id="id-04ca0bd7-b01d-459d-8939-48b6c42d0af1">
            <path
               style="stroke:none"
               d="M 3.515625,-1.265625 H 3.28125 c -0.015625,0.15625 -0.09375,0.5625 -0.1875,0.625 C 3.046875,-0.59375 2.515625,-0.59375 2.40625,-0.59375 H 1.125 c 0.734375,-0.640625 0.984375,-0.84375 1.390625,-1.171875 0.515625,-0.40625 1,-0.84375 1,-1.5 0,-0.84375 -0.734375,-1.359375 -1.625,-1.359375 -0.859375,0 -1.453125,0.609375 -1.453125,1.25 0,0.34375 0.296875,0.390625 0.375,0.390625 0.15625,0 0.359375,-0.125 0.359375,-0.375 0,-0.125 -0.046875,-0.375 -0.40625,-0.375 C 0.984375,-4.21875 1.453125,-4.375 1.78125,-4.375 c 0.703125,0 1.0625,0.546875 1.0625,1.109375 0,0.609375 -0.4375,1.078125 -0.65625,1.328125 L 0.515625,-0.265625 C 0.4375,-0.203125 0.4375,-0.1875 0.4375,0 h 2.875 z m 0,0"
               id="id-6821fc59-7372-4b02-a9e2-21b68a567c43" />
          </symbol>
          <symbol
             overflow="visible"
             id="id-4acf83a1-6ab3-4d0c-aea6-8e5aa201c594">
            <path
               style="stroke:none"
               d=""
               id="id-97bfb2a3-746d-4d9b-916f-f540a66ae8c7" />
          </symbol>
          <symbol
             overflow="visible"
             id="id-746f0402-8e8d-4bae-9d3a-f29da9647e9f">
            <path
               style="stroke:none"
               d="m 4.375,-7.09375 c 0.046875,-0.140625 0.046875,-0.171875 0.046875,-0.1875 0,-0.109375 -0.078125,-0.203125 -0.1875,-0.203125 -0.078125,0 -0.140625,0.03125 -0.171875,0.09375 l -3.46875,9.5 C 0.546875,2.25 0.546875,2.28125 0.546875,2.296875 0.546875,2.40625 0.640625,2.5 0.75,2.5 0.875,2.5 0.90625,2.421875 0.96875,2.25 Z m 0,0"
               id="id-647fabce-d8d2-4d48-8bf6-a6b1c5a289e5" />
          </symbol>
          <symbol
             overflow="visible"
             id="id-6505c023-c276-49b2-bc09-5864834c6b2b">
            <path
               style="stroke:none"
               d="M 7.0625,-2.328125 C 7.078125,-2.375 7.109375,-2.4375 7.109375,-2.46875 c 0,0 0,-0.109375 -0.125,-0.109375 -0.09375,0 -0.109375,0.0625 -0.125,0.125 C 6.203125,-0.984375 5.84375,-0.3125 4.140625,-0.3125 H 2.6875 c -0.140625,0 -0.171875,0 -0.21875,0 -0.109375,-0.015625 -0.140625,-0.03125 -0.140625,-0.109375 0,-0.03125 0,-0.046875 0.046875,-0.21875 L 3.0625,-3.375 h 0.984375 c 0.84375,0 0.84375,0.21875 0.84375,0.46875 0,0.0625 0,0.1875 -0.0625,0.484375 C 4.8125,-2.375 4.796875,-2.34375 4.796875,-2.3125 c 0,0.046875 0.03125,0.109375 0.125,0.109375 C 5,-2.203125 5.03125,-2.25 5.078125,-2.40625 l 0.5625,-2.328125 c 0,-0.0625 -0.046875,-0.109375 -0.125,-0.109375 -0.078125,0 -0.109375,0.0625 -0.125,0.171875 -0.21875,0.765625 -0.390625,1 -1.3125,1 h -0.9375 l 0.59375,-2.40625 C 3.828125,-6.4375 3.84375,-6.46875 4.28125,-6.46875 H 5.6875 c 1.203125,0 1.515625,0.28125 1.515625,1.109375 0,0.234375 0,0.25 -0.046875,0.53125 0,0.046875 -0.015625,0.125 -0.015625,0.171875 0,0.046875 0.03125,0.125 0.125,0.125 0.109375,0 0.125,-0.0625 0.140625,-0.25 L 7.609375,-6.515625 C 7.640625,-6.78125 7.59375,-6.78125 7.34375,-6.78125 H 2.296875 c -0.1875,0 -0.296875,0 -0.296875,0.203125 0,0.109375 0.09375,0.109375 0.28125,0.109375 0.375,0 0.65625,0 0.65625,0.171875 0,0.046875 0,0.0625 -0.0625,0.25 L 1.5625,-0.78125 c -0.09375,0.390625 -0.109375,0.46875 -0.90625,0.46875 -0.171875,0 -0.28125,0 -0.28125,0.1875 C 0.375,0 0.46875,0 0.65625,0 h 5.171875 c 0.234375,0 0.25,-0.015625 0.3125,-0.171875 z m 0,0"
               id="id-b1d271fc-08a7-4560-8f26-b4c4b8037899" />
          </symbol>
        </g>
      </defs>
      <g
         id="id-05d76e13-d791-43fb-a6f7-0f8afc5a461a"
         transform="translate(-149.009,-126.524)">
        <g
           style="fill:#000000;fill-opacity:1"
           id="id-a0ba02f5-9a6e-49d3-aaed-c4084541ed02">
          <g
             transform="translate(148.712,134.765)"
             id="g1646">
            <path
               style="stroke:none"
               d="m 0.71875,-1.046875 h 0.015625 c 0,0 0.140625,0.234375 0.453125,0.53125 -0.15625,0 -0.3125,0.03125 -0.46875,0.109375 z m 1.375,-2 c 0.78125,0.328125 1.828125,0.78125 1.828125,1.703125 0,0.703125 -0.296875,1.109375 -1.296875,1.109375 -0.515625,0 -0.953125,-0.28125 -1.296875,-0.640625 C 0.734375,-1.46875 0.71875,-2 0.71875,-2.21875 0.71875,-2.3125 0.640625,-2.390625 0.546875,-2.390625 0.375,-2.390625 0.375,-2.234375 0.375,-2.0625 v 1.859375 c 0,0.15625 0,0.328125 0.171875,0.328125 0.078125,0 0.09375,-0.03125 0.15625,-0.09375 0.171875,-0.15625 0.34375,-0.1875 0.46875,-0.1875 0.265625,0 0.5,0.09375 0.59375,0.125 C 2.171875,0.125 2.46875,0.125 2.625,0.125 c 1.4375,0 2.65625,-0.734375 2.65625,-2.03125 0,-0.84375 -0.5,-1.75 -1.9375,-2.296875 -0.875,-0.359375 -1.875,-0.75 -1.875,-1.453125 0,-0.546875 0.390625,-1.015625 1.109375,-1.015625 0.71875,0 1.671875,0.75 1.875,1.59375 C 4.46875,-4.9375 4.5,-4.84375 4.640625,-4.84375 4.8125,-4.84375 4.8125,-5 4.8125,-5.171875 V -6.6875 c 0,-0.171875 0,-0.328125 -0.171875,-0.328125 -0.078125,0 -0.125,0.046875 -0.171875,0.078125 C 4.390625,-6.84375 4.25,-6.734375 4,-6.734375 c -0.25,0 -0.484375,-0.078125 -0.59375,-0.125 -0.328125,-0.125 -0.5625,-0.15625 -0.859375,-0.15625 -1.34375,0 -2.25,0.671875 -2.25,1.984375 0,0.65625 0.265625,1.328125 1.796875,1.984375 z m 2.359375,-2.84375 c -0.0625,-0.109375 -0.15625,-0.203125 -0.4375,-0.5 0.265625,-0.015625 0.4375,-0.09375 0.4375,-0.09375 z M 4.125,-0.59375 c 0.140625,-0.28125 0.15625,-0.6875 0.15625,-0.75 0,-1.046875 -1.046875,-1.59375 -1.8125,-1.921875 -0.9375,-0.40625 -1.828125,-0.828125 -1.828125,-1.765625 0,-0.46875 0.125,-1.03125 0.671875,-1.34375 v 0.015625 c -0.171875,0.28125 -0.1875,0.625 -0.1875,0.703125 0,0.90625 1.09375,1.375 2,1.734375 0.359375,0.140625 0.875,0.34375 1.265625,0.734375 0.3125,0.359375 0.546875,0.734375 0.546875,1.28125 0,0.765625 -0.515625,1.15625 -0.8125,1.3125 z m 0,0"
               id="id-d6f457eb-50c9-4e6c-aa2d-cf45ec8c425a" />
          </g>
        </g>
        <g
           style="fill:#000000;fill-opacity:1"
           id="id-4aeb2546-8ba3-490d-aef2-c07fb86bea80">
          <g
             transform="translate(154.247,131.149)"
             id="g1650">
            <path
               style="stroke:none"
               d="M 3.515625,-1.265625 H 3.28125 c -0.015625,0.15625 -0.09375,0.5625 -0.1875,0.625 C 3.046875,-0.59375 2.515625,-0.59375 2.40625,-0.59375 H 1.125 c 0.734375,-0.640625 0.984375,-0.84375 1.390625,-1.171875 0.515625,-0.40625 1,-0.84375 1,-1.5 0,-0.84375 -0.734375,-1.359375 -1.625,-1.359375 -0.859375,0 -1.453125,0.609375 -1.453125,1.25 0,0.34375 0.296875,0.390625 0.375,0.390625 0.15625,0 0.359375,-0.125 0.359375,-0.375 0,-0.125 -0.046875,-0.375 -0.40625,-0.375 C 0.984375,-4.21875 1.453125,-4.375 1.78125,-4.375 c 0.703125,0 1.0625,0.546875 1.0625,1.109375 0,0.609375 -0.4375,1.078125 -0.65625,1.328125 L 0.515625,-0.265625 C 0.4375,-0.203125 0.4375,-0.1875 0.4375,0 h 2.875 z m 0,0"
               id="id-5ff7d19b-cfe5-4b33-9b19-7a756dc253d0" />
          </g>
        </g>
        <g
           style="fill:#000000;fill-opacity:1"
           id="id-45b08766-61b6-4302-8bb0-40d9e71a0c45">
          <g
             transform="translate(158.716,134.765)"
             id="g1654">
            <path
               style="stroke:none"
               d="m 4.375,-7.09375 c 0.046875,-0.140625 0.046875,-0.171875 0.046875,-0.1875 0,-0.109375 -0.078125,-0.203125 -0.1875,-0.203125 -0.078125,0 -0.140625,0.03125 -0.171875,0.09375 l -3.46875,9.5 C 0.546875,2.25 0.546875,2.28125 0.546875,2.296875 0.546875,2.40625 0.640625,2.5 0.75,2.5 0.875,2.5 0.90625,2.421875 0.96875,2.25 Z m 0,0"
               id="id-a932e975-e66d-434c-8573-f1e1ec24dcfc" />
          </g>
          <g
             transform="translate(163.697,134.765)"
             id="g1657">
            <path
               style="stroke:none"
               d="M 7.0625,-2.328125 C 7.078125,-2.375 7.109375,-2.4375 7.109375,-2.46875 c 0,0 0,-0.109375 -0.125,-0.109375 -0.09375,0 -0.109375,0.0625 -0.125,0.125 C 6.203125,-0.984375 5.84375,-0.3125 4.140625,-0.3125 H 2.6875 c -0.140625,0 -0.171875,0 -0.21875,0 -0.109375,-0.015625 -0.140625,-0.03125 -0.140625,-0.109375 0,-0.03125 0,-0.046875 0.046875,-0.21875 L 3.0625,-3.375 h 0.984375 c 0.84375,0 0.84375,0.21875 0.84375,0.46875 0,0.0625 0,0.1875 -0.0625,0.484375 C 4.8125,-2.375 4.796875,-2.34375 4.796875,-2.3125 c 0,0.046875 0.03125,0.109375 0.125,0.109375 C 5,-2.203125 5.03125,-2.25 5.078125,-2.40625 l 0.5625,-2.328125 c 0,-0.0625 -0.046875,-0.109375 -0.125,-0.109375 -0.078125,0 -0.109375,0.0625 -0.125,0.171875 -0.21875,0.765625 -0.390625,1 -1.3125,1 h -0.9375 l 0.59375,-2.40625 C 3.828125,-6.4375 3.84375,-6.46875 4.28125,-6.46875 H 5.6875 c 1.203125,0 1.515625,0.28125 1.515625,1.109375 0,0.234375 0,0.25 -0.046875,0.53125 0,0.046875 -0.015625,0.125 -0.015625,0.171875 0,0.046875 0.03125,0.125 0.125,0.125 0.109375,0 0.125,-0.0625 0.140625,-0.25 L 7.609375,-6.515625 C 7.640625,-6.78125 7.59375,-6.78125 7.34375,-6.78125 H 2.296875 c -0.1875,0 -0.296875,0 -0.296875,0.203125 0,0.109375 0.09375,0.109375 0.28125,0.109375 0.375,0 0.65625,0 0.65625,0.171875 0,0.046875 0,0.0625 -0.0625,0.25 L 1.5625,-0.78125 c -0.09375,0.390625 -0.109375,0.46875 -0.90625,0.46875 -0.171875,0 -0.28125,0 -0.28125,0.1875 C 0.375,0 0.46875,0 0.65625,0 h 5.171875 c 0.234375,0 0.25,-0.015625 0.3125,-0.171875 z m 0,0"
               id="id-4ddc4011-a227-4cfe-a341-d08547809b06" />
          </g>
        </g>
      </g>
    </g>
    <g
       transform="matrix(1.41111,0,0,1.41111,31.418363,145.87617)"
       ns4:version="1.3.0"
       ns4:texconverter="pdflatex"
       ns4:pdfconverter="inkscape"
       ns4:text="$ \\mathbb{S}^2/H$"
       ns4:preamble="/usr/share/inkscape/extensions/textext/default_packages.tex"
       ns4:scale="4.0"
       ns4:alignment="middle center"
       ns4:inkscapeversion="1.0.2"
       ns4:jacobian_sqrt="1.41111"
       id="g1749"
       inkscape:export-filename="/home/macbuse/sphere.png"
       inkscape:export-xdpi="84.193672"
       inkscape:export-ydpi="84.193672">
      <defs
         id="id-af4c465e-367d-4100-bd53-69d8cce77638">
        <g
           id="id-6207474a-f8dc-4805-a9df-11f39e46833e">
          <symbol
             overflow="visible"
             id="id-405beb44-aa57-4e49-9d65-f2c6c453b0da">
            <path
               style="stroke:none"
               d=""
               id="id-28786894-5f62-428a-a9b7-2d4df5595661" />
          </symbol>
          <symbol
             overflow="visible"
             id="id-262df81b-05f8-44b6-b9f4-9c005b68de8a">
            <path
               style="stroke:none"
               d="m 0.71875,-1.046875 h 0.015625 c 0,0 0.140625,0.234375 0.453125,0.53125 -0.15625,0 -0.3125,0.03125 -0.46875,0.109375 z m 1.375,-2 c 0.78125,0.328125 1.828125,0.78125 1.828125,1.703125 0,0.703125 -0.296875,1.109375 -1.296875,1.109375 -0.515625,0 -0.953125,-0.28125 -1.296875,-0.640625 C 0.734375,-1.46875 0.71875,-2 0.71875,-2.21875 0.71875,-2.3125 0.640625,-2.390625 0.546875,-2.390625 0.375,-2.390625 0.375,-2.234375 0.375,-2.0625 v 1.859375 c 0,0.15625 0,0.328125 0.171875,0.328125 0.078125,0 0.09375,-0.03125 0.15625,-0.09375 0.171875,-0.15625 0.34375,-0.1875 0.46875,-0.1875 0.265625,0 0.5,0.09375 0.59375,0.125 C 2.171875,0.125 2.46875,0.125 2.625,0.125 c 1.4375,0 2.65625,-0.734375 2.65625,-2.03125 0,-0.84375 -0.5,-1.75 -1.9375,-2.296875 -0.875,-0.359375 -1.875,-0.75 -1.875,-1.453125 0,-0.546875 0.390625,-1.015625 1.109375,-1.015625 0.71875,0 1.671875,0.75 1.875,1.59375 C 4.46875,-4.9375 4.5,-4.84375 4.640625,-4.84375 4.8125,-4.84375 4.8125,-5 4.8125,-5.171875 V -6.6875 c 0,-0.171875 0,-0.328125 -0.171875,-0.328125 -0.078125,0 -0.125,0.046875 -0.171875,0.078125 C 4.390625,-6.84375 4.25,-6.734375 4,-6.734375 c -0.25,0 -0.484375,-0.078125 -0.59375,-0.125 -0.328125,-0.125 -0.5625,-0.15625 -0.859375,-0.15625 -1.34375,0 -2.25,0.671875 -2.25,1.984375 0,0.65625 0.265625,1.328125 1.796875,1.984375 z m 2.359375,-2.84375 c -0.0625,-0.109375 -0.15625,-0.203125 -0.4375,-0.5 0.265625,-0.015625 0.4375,-0.09375 0.4375,-0.09375 z M 4.125,-0.59375 c 0.140625,-0.28125 0.15625,-0.6875 0.15625,-0.75 0,-1.046875 -1.046875,-1.59375 -1.8125,-1.921875 -0.9375,-0.40625 -1.828125,-0.828125 -1.828125,-1.765625 0,-0.46875 0.125,-1.03125 0.671875,-1.34375 v 0.015625 c -0.171875,0.28125 -0.1875,0.625 -0.1875,0.703125 0,0.90625 1.09375,1.375 2,1.734375 0.359375,0.140625 0.875,0.34375 1.265625,0.734375 0.3125,0.359375 0.546875,0.734375 0.546875,1.28125 0,0.765625 -0.515625,1.15625 -0.8125,1.3125 z m 0,0"
               id="id-e4e9f6f7-5d87-4f59-8a05-8dceeb401445" />
          </symbol>
          <symbol
             overflow="visible"
             id="id-f0028cb0-fb4e-4069-b37b-1b6d9256a0e8">
            <path
               style="stroke:none"
               d=""
               id="id-c68d8630-7ba4-40f2-a3d0-b715ddf85c7f" />
          </symbol>
          <symbol
             overflow="visible"
             id="id-2ce249b7-03b1-45d0-aa66-fe97b545b53d">
            <path
               style="stroke:none"
               d="M 3.515625,-1.265625 H 3.28125 c -0.015625,0.15625 -0.09375,0.5625 -0.1875,0.625 C 3.046875,-0.59375 2.515625,-0.59375 2.40625,-0.59375 H 1.125 c 0.734375,-0.640625 0.984375,-0.84375 1.390625,-1.171875 0.515625,-0.40625 1,-0.84375 1,-1.5 0,-0.84375 -0.734375,-1.359375 -1.625,-1.359375 -0.859375,0 -1.453125,0.609375 -1.453125,1.25 0,0.34375 0.296875,0.390625 0.375,0.390625 0.15625,0 0.359375,-0.125 0.359375,-0.375 0,-0.125 -0.046875,-0.375 -0.40625,-0.375 C 0.984375,-4.21875 1.453125,-4.375 1.78125,-4.375 c 0.703125,0 1.0625,0.546875 1.0625,1.109375 0,0.609375 -0.4375,1.078125 -0.65625,1.328125 L 0.515625,-0.265625 C 0.4375,-0.203125 0.4375,-0.1875 0.4375,0 h 2.875 z m 0,0"
               id="id-3321aafe-908c-48c1-b0c8-d5758c85f2f2" />
          </symbol>
          <symbol
             overflow="visible"
             id="id-eae23aef-831f-4847-88f9-ee6d11d7488f">
            <path
               style="stroke:none"
               d=""
               id="id-d0a81048-e948-4d3d-be10-a75192777f63" />
          </symbol>
          <symbol
             overflow="visible"
             id="id-0aaf2ef0-1249-4eed-890b-7603720563ed">
            <path
               style="stroke:none"
               d="m 4.375,-7.09375 c 0.046875,-0.140625 0.046875,-0.171875 0.046875,-0.1875 0,-0.109375 -0.078125,-0.203125 -0.1875,-0.203125 -0.078125,0 -0.140625,0.03125 -0.171875,0.09375 l -3.46875,9.5 C 0.546875,2.25 0.546875,2.28125 0.546875,2.296875 0.546875,2.40625 0.640625,2.5 0.75,2.5 0.875,2.5 0.90625,2.421875 0.96875,2.25 Z m 0,0"
               id="id-6b56bcd0-95e4-42cf-88e9-71e91bafed01" />
          </symbol>
          <symbol
             overflow="visible"
             id="id-3be57361-db11-448d-bce3-f4450ccf3b9a">
            <path
               style="stroke:none"
               d="M 7.609375,-6.046875 C 7.703125,-6.40625 7.71875,-6.5 8.4375,-6.5 c 0.265625,0 0.34375,0 0.34375,-0.203125 0,-0.109375 -0.109375,-0.109375 -0.140625,-0.109375 -0.28125,0 -1,0.03125 -1.28125,0.03125 -0.28125,0 -0.984375,-0.03125 -1.28125,-0.03125 -0.078125,0 -0.1875,0 -0.1875,0.203125 0,0.109375 0.09375,0.109375 0.28125,0.109375 0.015625,0 0.203125,0 0.375,0.015625 0.1875,0.03125 0.265625,0.03125 0.265625,0.171875 0,0.03125 0,0.046875 -0.03125,0.1875 L 6.1875,-3.703125 H 3.140625 l 0.59375,-2.34375 C 3.8125,-6.40625 3.84375,-6.5 4.5625,-6.5 c 0.265625,0 0.34375,0 0.34375,-0.203125 0,-0.109375 -0.109375,-0.109375 -0.140625,-0.109375 -0.28125,0 -1,0.03125 -1.28125,0.03125 -0.28125,0 -0.984375,-0.03125 -1.28125,-0.03125 -0.078125,0 -0.1875,0 -0.1875,0.203125 0,0.109375 0.09375,0.109375 0.28125,0.109375 0.015625,0 0.203125,0 0.375,0.015625 0.171875,0.03125 0.265625,0.03125 0.265625,0.171875 0,0.03125 0,0.0625 -0.03125,0.1875 L 1.5625,-0.78125 c -0.09375,0.390625 -0.109375,0.46875 -0.90625,0.46875 -0.171875,0 -0.265625,0 -0.265625,0.203125 C 0.390625,0 0.515625,0 0.53125,0 0.8125,0 1.515625,-0.03125 1.796875,-0.03125 2,-0.03125 2.21875,-0.015625 2.4375,-0.015625 2.65625,-0.015625 2.875,0 3.078125,0 3.15625,0 3.28125,0 3.28125,-0.203125 3.28125,-0.3125 3.1875,-0.3125 3,-0.3125 c -0.375,0 -0.640625,0 -0.640625,-0.171875 0,-0.0625 0.015625,-0.109375 0.015625,-0.171875 l 0.6875,-2.734375 h 3.03125 c -0.40625,1.65625 -0.640625,2.609375 -0.6875,2.75 C 5.3125,-0.3125 5.125,-0.3125 4.5,-0.3125 c -0.140625,0 -0.234375,0 -0.234375,0.203125 C 4.265625,0 4.390625,0 4.40625,0 4.6875,0 5.390625,-0.03125 5.671875,-0.03125 5.875,-0.03125 6.09375,-0.015625 6.3125,-0.015625 6.53125,-0.015625 6.75,0 6.953125,0 7.03125,0 7.15625,0 7.15625,-0.203125 7.15625,-0.3125 7.0625,-0.3125 6.875,-0.3125 c -0.359375,0 -0.640625,0 -0.640625,-0.171875 0,-0.0625 0.015625,-0.109375 0.03125,-0.171875 z m 0,0"
               id="id-2cf5f15e-3b85-4be9-8924-0cb1783bc633" />
          </symbol>
        </g>
      </defs>
      <g
         id="id-6b94f776-dedf-4ce4-a2bc-614b3e39362e"
         transform="translate(-149.009,-126.524)">
        <g
           style="fill:#000000;fill-opacity:1"
           id="id-3016fc94-7eaa-4c57-8e59-01b2651c0097">
          <g
             transform="translate(148.712,134.765)"
             id="g1860">
            <path
               style="stroke:none"
               d="m 0.71875,-1.046875 h 0.015625 c 0,0 0.140625,0.234375 0.453125,0.53125 -0.15625,0 -0.3125,0.03125 -0.46875,0.109375 z m 1.375,-2 c 0.78125,0.328125 1.828125,0.78125 1.828125,1.703125 0,0.703125 -0.296875,1.109375 -1.296875,1.109375 -0.515625,0 -0.953125,-0.28125 -1.296875,-0.640625 C 0.734375,-1.46875 0.71875,-2 0.71875,-2.21875 0.71875,-2.3125 0.640625,-2.390625 0.546875,-2.390625 0.375,-2.390625 0.375,-2.234375 0.375,-2.0625 v 1.859375 c 0,0.15625 0,0.328125 0.171875,0.328125 0.078125,0 0.09375,-0.03125 0.15625,-0.09375 0.171875,-0.15625 0.34375,-0.1875 0.46875,-0.1875 0.265625,0 0.5,0.09375 0.59375,0.125 C 2.171875,0.125 2.46875,0.125 2.625,0.125 c 1.4375,0 2.65625,-0.734375 2.65625,-2.03125 0,-0.84375 -0.5,-1.75 -1.9375,-2.296875 -0.875,-0.359375 -1.875,-0.75 -1.875,-1.453125 0,-0.546875 0.390625,-1.015625 1.109375,-1.015625 0.71875,0 1.671875,0.75 1.875,1.59375 C 4.46875,-4.9375 4.5,-4.84375 4.640625,-4.84375 4.8125,-4.84375 4.8125,-5 4.8125,-5.171875 V -6.6875 c 0,-0.171875 0,-0.328125 -0.171875,-0.328125 -0.078125,0 -0.125,0.046875 -0.171875,0.078125 C 4.390625,-6.84375 4.25,-6.734375 4,-6.734375 c -0.25,0 -0.484375,-0.078125 -0.59375,-0.125 -0.328125,-0.125 -0.5625,-0.15625 -0.859375,-0.15625 -1.34375,0 -2.25,0.671875 -2.25,1.984375 0,0.65625 0.265625,1.328125 1.796875,1.984375 z m 2.359375,-2.84375 c -0.0625,-0.109375 -0.15625,-0.203125 -0.4375,-0.5 0.265625,-0.015625 0.4375,-0.09375 0.4375,-0.09375 z M 4.125,-0.59375 c 0.140625,-0.28125 0.15625,-0.6875 0.15625,-0.75 0,-1.046875 -1.046875,-1.59375 -1.8125,-1.921875 -0.9375,-0.40625 -1.828125,-0.828125 -1.828125,-1.765625 0,-0.46875 0.125,-1.03125 0.671875,-1.34375 v 0.015625 c -0.171875,0.28125 -0.1875,0.625 -0.1875,0.703125 0,0.90625 1.09375,1.375 2,1.734375 0.359375,0.140625 0.875,0.34375 1.265625,0.734375 0.3125,0.359375 0.546875,0.734375 0.546875,1.28125 0,0.765625 -0.515625,1.15625 -0.8125,1.3125 z m 0,0"
               id="id-d2f0d9de-8d17-4977-940a-3d711b5e57a9" />
          </g>
        </g>
        <g
           style="fill:#000000;fill-opacity:1"
           id="id-c96dbf16-02ae-43b6-a809-032e774607be">
          <g
             transform="translate(154.247,131.149)"
             id="g1864">
            <path
               style="stroke:none"
               d="M 3.515625,-1.265625 H 3.28125 c -0.015625,0.15625 -0.09375,0.5625 -0.1875,0.625 C 3.046875,-0.59375 2.515625,-0.59375 2.40625,-0.59375 H 1.125 c 0.734375,-0.640625 0.984375,-0.84375 1.390625,-1.171875 0.515625,-0.40625 1,-0.84375 1,-1.5 0,-0.84375 -0.734375,-1.359375 -1.625,-1.359375 -0.859375,0 -1.453125,0.609375 -1.453125,1.25 0,0.34375 0.296875,0.390625 0.375,0.390625 0.15625,0 0.359375,-0.125 0.359375,-0.375 0,-0.125 -0.046875,-0.375 -0.40625,-0.375 C 0.984375,-4.21875 1.453125,-4.375 1.78125,-4.375 c 0.703125,0 1.0625,0.546875 1.0625,1.109375 0,0.609375 -0.4375,1.078125 -0.65625,1.328125 L 0.515625,-0.265625 C 0.4375,-0.203125 0.4375,-0.1875 0.4375,0 h 2.875 z m 0,0"
               id="id-c13696bc-4da6-4442-aa92-86809591b6a0" />
          </g>
        </g>
        <g
           style="fill:#000000;fill-opacity:1"
           id="id-88566100-dcd7-4be8-bb76-d7dfd47348d5">
          <g
             transform="translate(158.716,134.765)"
             id="g1868">
            <path
               style="stroke:none"
               d="m 4.375,-7.09375 c 0.046875,-0.140625 0.046875,-0.171875 0.046875,-0.1875 0,-0.109375 -0.078125,-0.203125 -0.1875,-0.203125 -0.078125,0 -0.140625,0.03125 -0.171875,0.09375 l -3.46875,9.5 C 0.546875,2.25 0.546875,2.28125 0.546875,2.296875 0.546875,2.40625 0.640625,2.5 0.75,2.5 0.875,2.5 0.90625,2.421875 0.96875,2.25 Z m 0,0"
               id="id-68dcf83c-b659-4f02-bb78-6ec320a84846" />
          </g>
          <g
             transform="translate(163.697,134.765)"
             id="g1871">
            <path
               style="stroke:none"
               d="M 7.609375,-6.046875 C 7.703125,-6.40625 7.71875,-6.5 8.4375,-6.5 c 0.265625,0 0.34375,0 0.34375,-0.203125 0,-0.109375 -0.109375,-0.109375 -0.140625,-0.109375 -0.28125,0 -1,0.03125 -1.28125,0.03125 -0.28125,0 -0.984375,-0.03125 -1.28125,-0.03125 -0.078125,0 -0.1875,0 -0.1875,0.203125 0,0.109375 0.09375,0.109375 0.28125,0.109375 0.015625,0 0.203125,0 0.375,0.015625 0.1875,0.03125 0.265625,0.03125 0.265625,0.171875 0,0.03125 0,0.046875 -0.03125,0.1875 L 6.1875,-3.703125 H 3.140625 l 0.59375,-2.34375 C 3.8125,-6.40625 3.84375,-6.5 4.5625,-6.5 c 0.265625,0 0.34375,0 0.34375,-0.203125 0,-0.109375 -0.109375,-0.109375 -0.140625,-0.109375 -0.28125,0 -1,0.03125 -1.28125,0.03125 -0.28125,0 -0.984375,-0.03125 -1.28125,-0.03125 -0.078125,0 -0.1875,0 -0.1875,0.203125 0,0.109375 0.09375,0.109375 0.28125,0.109375 0.015625,0 0.203125,0 0.375,0.015625 0.171875,0.03125 0.265625,0.03125 0.265625,0.171875 0,0.03125 0,0.0625 -0.03125,0.1875 L 1.5625,-0.78125 c -0.09375,0.390625 -0.109375,0.46875 -0.90625,0.46875 -0.171875,0 -0.265625,0 -0.265625,0.203125 C 0.390625,0 0.515625,0 0.53125,0 0.8125,0 1.515625,-0.03125 1.796875,-0.03125 2,-0.03125 2.21875,-0.015625 2.4375,-0.015625 2.65625,-0.015625 2.875,0 3.078125,0 3.15625,0 3.28125,0 3.28125,-0.203125 3.28125,-0.3125 3.1875,-0.3125 3,-0.3125 c -0.375,0 -0.640625,0 -0.640625,-0.171875 0,-0.0625 0.015625,-0.109375 0.015625,-0.171875 l 0.6875,-2.734375 h 3.03125 c -0.40625,1.65625 -0.640625,2.609375 -0.6875,2.75 C 5.3125,-0.3125 5.125,-0.3125 4.5,-0.3125 c -0.140625,0 -0.234375,0 -0.234375,0.203125 C 4.265625,0 4.390625,0 4.40625,0 4.6875,0 5.390625,-0.03125 5.671875,-0.03125 5.875,-0.03125 6.09375,-0.015625 6.3125,-0.015625 6.53125,-0.015625 6.75,0 6.953125,0 7.03125,0 7.15625,0 7.15625,-0.203125 7.15625,-0.3125 7.0625,-0.3125 6.875,-0.3125 c -0.359375,0 -0.640625,0 -0.640625,-0.171875 0,-0.0625 0.015625,-0.109375 0.03125,-0.171875 z m 0,0"
               id="id-6a191539-8f4e-422b-a14a-aa4a7b460218" />
          </g>
        </g>
      </g>
    </g>
    <ellipse
       style="fill:#550000;fill-opacity:1;stroke:none;stroke-width:2;stroke-linecap:round;stroke-miterlimit:4;stroke-dasharray:none;stop-color:#000000"
       id="path1907"
       cx="45.792351"
       cy="168.51378"
       rx="1.1677381"
       ry="1.1917506"
       inkscape:export-filename="/home/macbuse/sphere.png"
       inkscape:export-xdpi="84.193672"
       inkscape:export-ydpi="84.193672" />
    <ellipse
       style="fill:#550000;fill-opacity:1;stroke:none;stroke-width:2;stroke-linecap:round;stroke-miterlimit:4;stroke-dasharray:none;stop-color:#000000"
       id="ellipse1927"
       cx="107.17568"
       cy="132.5304"
       rx="1.1677381"
       ry="1.1917506"
       inkscape:export-filename="/home/macbuse/sphere.png"
       inkscape:export-xdpi="84.193672"
       inkscape:export-ydpi="84.193672" />
  </g>
</svg>
